<mxfile host="Electron" modified="2023-05-04T19:14:30.000Z" agent="Mozilla/5.0 (Windows NT 10.0; Win64; x64) AppleWebKit/537.36 (KHTML, like Gecko) draw.io/21.1.2 Chrome/106.0.5249.199 Electron/21.4.3 Safari/537.36" etag="DIYq8SDea0_EYMuRD76I" version="21.1.2" type="device">
  <diagram id="C5RBs43oDa-KdzZeNtuy" name="Page-1">
    <mxGraphModel dx="1816" dy="1751" grid="1" gridSize="10" guides="1" tooltips="1" connect="1" arrows="1" fold="1" page="1" pageScale="1" pageWidth="827" pageHeight="1169" math="0" shadow="0">
      <root>
        <mxCell id="WIyWlLk6GJQsqaUBKTNV-0" />
        <mxCell id="WIyWlLk6GJQsqaUBKTNV-1" parent="WIyWlLk6GJQsqaUBKTNV-0" />
        <mxCell id="3nhxtxOCKIJYej11kyEG-0" value="&lt;b style=&quot;font-size: 9px;&quot;&gt;Presentation Layer&lt;/b&gt;" style="verticalAlign=top;align=center;spacingTop=8;spacingLeft=2;spacingRight=12;shape=cube;size=10;direction=south;fontStyle=4;html=1;fontSize=9;" parent="WIyWlLk6GJQsqaUBKTNV-1" vertex="1">
          <mxGeometry x="-820" y="-1160" width="810" height="1150" as="geometry" />
        </mxCell>
        <mxCell id="yrnM3i_oS5V_zNQIPLy5-59" value="&lt;p style=&quot;margin:0px;margin-top:4px;margin-left:10px;text-align:left;&quot;&gt;&lt;b&gt;Model&lt;/b&gt;&lt;/p&gt;" style="html=1;shape=mxgraph.sysml.package;html=1;overflow=fill;whiteSpace=wrap;fontSize=9;" parent="WIyWlLk6GJQsqaUBKTNV-1" vertex="1">
          <mxGeometry x="-810" y="-623" width="770" height="610" as="geometry" />
        </mxCell>
        <mxCell id="yrnM3i_oS5V_zNQIPLy5-58" value="&lt;p style=&quot;margin:0px;margin-top:4px;margin-left:10px;text-align:left;&quot;&gt;&lt;b&gt;ViewModel&lt;/b&gt;&lt;/p&gt;" style="html=1;shape=mxgraph.sysml.package;html=1;overflow=fill;whiteSpace=wrap;fontSize=9;" parent="WIyWlLk6GJQsqaUBKTNV-1" vertex="1">
          <mxGeometry x="-810" y="-804" width="770" height="176" as="geometry" />
        </mxCell>
        <mxCell id="yrnM3i_oS5V_zNQIPLy5-57" value="&lt;p style=&quot;margin:0px;margin-top:4px;margin-left:10px;text-align:left;&quot;&gt;&lt;b&gt;View&lt;/b&gt;&lt;/p&gt;" style="html=1;shape=mxgraph.sysml.package;html=1;overflow=fill;whiteSpace=wrap;fontSize=9;" parent="WIyWlLk6GJQsqaUBKTNV-1" vertex="1">
          <mxGeometry x="-810" y="-1130" width="770" height="320" as="geometry" />
        </mxCell>
        <mxCell id="3nhxtxOCKIJYej11kyEG-1" value="&lt;&lt;Singleton&gt;&gt;&#xa;BackendController" style="swimlane;fontStyle=1;align=center;verticalAlign=top;childLayout=stackLayout;horizontal=1;startSize=40;horizontalStack=0;resizeParent=1;resizeParentMax=0;resizeLast=0;collapsible=1;marginBottom=0;fontSize=9;" parent="WIyWlLk6GJQsqaUBKTNV-1" vertex="1">
          <mxGeometry x="-663" y="-557" width="500" height="544" as="geometry" />
        </mxCell>
        <mxCell id="yrnM3i_oS5V_zNQIPLy5-46" value="- String loggedUsername" style="text;strokeColor=none;fillColor=none;align=left;verticalAlign=top;spacingLeft=4;spacingRight=4;overflow=hidden;rotatable=0;points=[[0,0.5],[1,0.5]];portConstraint=eastwest;fontStyle=0;fontSize=7;" parent="3nhxtxOCKIJYej11kyEG-1" vertex="1">
          <mxGeometry y="40" width="500" height="16" as="geometry" />
        </mxCell>
        <mxCell id="3nhxtxOCKIJYej11kyEG-7" value="" style="line;strokeWidth=1;fillColor=none;align=left;verticalAlign=middle;spacingTop=-1;spacingLeft=3;spacingRight=3;rotatable=0;labelPosition=right;points=[];portConstraint=eastwest;fontSize=9;" parent="3nhxtxOCKIJYej11kyEG-1" vertex="1">
          <mxGeometry y="56" width="500" height="8" as="geometry" />
        </mxCell>
        <mxCell id="yrnM3i_oS5V_zNQIPLy5-47" value="+ isLoggedIn(): boolean" style="text;strokeColor=none;fillColor=none;align=left;verticalAlign=top;spacingLeft=4;spacingRight=4;overflow=hidden;rotatable=0;points=[[0,0.5],[1,0.5]];portConstraint=eastwest;fontStyle=0;fontSize=7;" parent="3nhxtxOCKIJYej11kyEG-1" vertex="1">
          <mxGeometry y="64" width="500" height="16" as="geometry" />
        </mxCell>
        <mxCell id="yrnM3i_oS5V_zNQIPLy5-48" value="- logout(): String" style="text;strokeColor=none;fillColor=none;align=left;verticalAlign=top;spacingLeft=4;spacingRight=4;overflow=hidden;rotatable=0;points=[[0,0.5],[1,0.5]];portConstraint=eastwest;fontStyle=0;fontSize=7;" parent="3nhxtxOCKIJYej11kyEG-1" vertex="1">
          <mxGeometry y="80" width="500" height="16" as="geometry" />
        </mxCell>
        <mxCell id="yrnM3i_oS5V_zNQIPLy5-60" value="+ recruitEmployee(): String" style="text;strokeColor=none;fillColor=none;align=left;verticalAlign=top;spacingLeft=4;spacingRight=4;overflow=hidden;rotatable=0;points=[[0,0.5],[1,0.5]];portConstraint=eastwest;fontStyle=0;fontSize=7;" parent="3nhxtxOCKIJYej11kyEG-1" vertex="1">
          <mxGeometry y="96" width="500" height="16" as="geometry" />
        </mxCell>
        <mxCell id="yrnM3i_oS5V_zNQIPLy5-49" value="+ createUser(username: String, password: String): String" style="text;strokeColor=none;fillColor=none;align=left;verticalAlign=top;spacingLeft=4;spacingRight=4;overflow=hidden;rotatable=0;points=[[0,0.5],[1,0.5]];portConstraint=eastwest;fontStyle=0;fontSize=7;" parent="3nhxtxOCKIJYej11kyEG-1" vertex="1">
          <mxGeometry y="112" width="500" height="16" as="geometry" />
        </mxCell>
        <mxCell id="bhEWnd2NRkioedVnW9Wu-31" value="+ requestShift(branchId: String, shiftTime: String, shiftDate: LocalDate): String" style="text;strokeColor=none;fillColor=none;align=left;verticalAlign=top;spacingLeft=4;spacingRight=4;overflow=hidden;rotatable=0;points=[[0,0.5],[1,0.5]];portConstraint=eastwest;fontStyle=0;fontSize=7;" parent="3nhxtxOCKIJYej11kyEG-1" vertex="1">
          <mxGeometry y="128" width="500" height="16" as="geometry" />
        </mxCell>
        <mxCell id="yrnM3i_oS5V_zNQIPLy5-61" value="+ getUserAuthorizations(): List&lt;String&gt;" style="text;strokeColor=none;fillColor=none;align=left;verticalAlign=top;spacingLeft=4;spacingRight=4;overflow=hidden;rotatable=0;points=[[0,0.5],[1,0.5]];portConstraint=eastwest;fontStyle=0;fontSize=7;" parent="3nhxtxOCKIJYej11kyEG-1" vertex="1">
          <mxGeometry y="144" width="500" height="16" as="geometry" />
        </mxCell>
        <mxCell id="bhEWnd2NRkioedVnW9Wu-32" value="+ createWeekShifts(branchId: String, weekStart: LocalDate): String" style="text;strokeColor=none;fillColor=none;align=left;verticalAlign=top;spacingLeft=4;spacingRight=4;overflow=hidden;rotatable=0;points=[[0,0.5],[1,0.5]];portConstraint=eastwest;fontStyle=0;fontSize=7;" parent="3nhxtxOCKIJYej11kyEG-1" vertex="1">
          <mxGeometry y="160" width="500" height="16" as="geometry" />
        </mxCell>
        <mxCell id="bhEWnd2NRkioedVnW9Wu-33" value="+ createNextWeekShifts(branchId: String): String" style="text;strokeColor=none;fillColor=none;align=left;verticalAlign=top;spacingLeft=4;spacingRight=4;overflow=hidden;rotatable=0;points=[[0,0.5],[1,0.5]];portConstraint=eastwest;fontStyle=0;fontSize=7;" parent="3nhxtxOCKIJYej11kyEG-1" vertex="1">
          <mxGeometry y="176" width="500" height="16" as="geometry" />
        </mxCell>
        <mxCell id="bhEWnd2NRkioedVnW9Wu-34" value="+ setShiftNeededAmount(branchId: String, shiftDatE: LocalDate, shiftType: String, role: String, amount: int): String" style="text;strokeColor=none;fillColor=none;align=left;verticalAlign=top;spacingLeft=4;spacingRight=4;overflow=hidden;rotatable=0;points=[[0,0.5],[1,0.5]];portConstraint=eastwest;fontStyle=0;fontSize=7;" parent="3nhxtxOCKIJYej11kyEG-1" vertex="1">
          <mxGeometry y="192" width="500" height="16" as="geometry" />
        </mxCell>
        <mxCell id="bhEWnd2NRkioedVnW9Wu-35" value="+ setShiftEmployees(branchId: String, shiftDate: LocalDate, shiftType: String, role: String, List&lt;String&gt; employeeIds): String" style="text;strokeColor=none;fillColor=none;align=left;verticalAlign=top;spacingLeft=4;spacingRight=4;overflow=hidden;rotatable=0;points=[[0,0.5],[1,0.5]];portConstraint=eastwest;fontStyle=0;fontSize=7;" parent="3nhxtxOCKIJYej11kyEG-1" vertex="1">
          <mxGeometry y="208" width="500" height="16" as="geometry" />
        </mxCell>
        <mxCell id="yrnM3i_oS5V_zNQIPLy5-77" value="+ getWeekShifts(branchId: String, weekStart: LocalDate): List&lt;SShift[]&gt;" style="text;strokeColor=none;fillColor=none;align=left;verticalAlign=top;spacingLeft=4;spacingRight=4;overflow=hidden;rotatable=0;points=[[0,0.5],[1,0.5]];portConstraint=eastwest;fontStyle=0;fontSize=7;" parent="3nhxtxOCKIJYej11kyEG-1" vertex="1">
          <mxGeometry y="224" width="500" height="16" as="geometry" />
        </mxCell>
        <mxCell id="bhEWnd2NRkioedVnW9Wu-45" value="+ getNextWeekShifts(branchId: String): List&lt;SShift[]&gt;" style="text;strokeColor=none;fillColor=none;align=left;verticalAlign=top;spacingLeft=4;spacingRight=4;overflow=hidden;rotatable=0;points=[[0,0.5],[1,0.5]];portConstraint=eastwest;fontStyle=0;fontSize=7;" parent="3nhxtxOCKIJYej11kyEG-1" vertex="1">
          <mxGeometry y="240" width="500" height="16" as="geometry" />
        </mxCell>
        <mxCell id="bhEWnd2NRkioedVnW9Wu-46" value="+ getMyShifts(): List&lt;SShift[]&gt;" style="text;strokeColor=none;fillColor=none;align=left;verticalAlign=top;spacingLeft=4;spacingRight=4;overflow=hidden;rotatable=0;points=[[0,0.5],[1,0.5]];portConstraint=eastwest;fontStyle=0;fontSize=7;" parent="3nhxtxOCKIJYej11kyEG-1" vertex="1">
          <mxGeometry y="256" width="500" height="16" as="geometry" />
        </mxCell>
        <mxCell id="bhEWnd2NRkioedVnW9Wu-47" value="+ getEmployee(): SEmployee" style="text;strokeColor=none;fillColor=none;align=left;verticalAlign=top;spacingLeft=4;spacingRight=4;overflow=hidden;rotatable=0;points=[[0,0.5],[1,0.5]];portConstraint=eastwest;fontStyle=0;fontSize=7;" parent="3nhxtxOCKIJYej11kyEG-1" vertex="1">
          <mxGeometry y="272" width="500" height="16" as="geometry" />
        </mxCell>
        <mxCell id="bhEWnd2NRkioedVnW9Wu-48" value="+ certifyEmployee(employeeId: String, role: String): String" style="text;strokeColor=none;fillColor=none;align=left;verticalAlign=top;spacingLeft=4;spacingRight=4;overflow=hidden;rotatable=0;points=[[0,0.5],[1,0.5]];portConstraint=eastwest;fontStyle=0;fontSize=7;" parent="3nhxtxOCKIJYej11kyEG-1" vertex="1">
          <mxGeometry y="288" width="500" height="16" as="geometry" />
        </mxCell>
        <mxCell id="bhEWnd2NRkioedVnW9Wu-50" value="+ uncertifyEmployee(employeeId: String, role: String): String" style="text;strokeColor=none;fillColor=none;align=left;verticalAlign=top;spacingLeft=4;spacingRight=4;overflow=hidden;rotatable=0;points=[[0,0.5],[1,0.5]];portConstraint=eastwest;fontStyle=0;fontSize=7;" parent="3nhxtxOCKIJYej11kyEG-1" vertex="1">
          <mxGeometry y="304" width="500" height="16" as="geometry" />
        </mxCell>
        <mxCell id="bhEWnd2NRkioedVnW9Wu-49" value="+ certifyDriver(driverId: String, driverLicense: String): String" style="text;strokeColor=none;fillColor=none;align=left;verticalAlign=top;spacingLeft=4;spacingRight=4;overflow=hidden;rotatable=0;points=[[0,0.5],[1,0.5]];portConstraint=eastwest;fontStyle=0;fontSize=7;" parent="3nhxtxOCKIJYej11kyEG-1" vertex="1">
          <mxGeometry y="320" width="500" height="16" as="geometry" />
        </mxCell>
        <mxCell id="bhEWnd2NRkioedVnW9Wu-51" value="+ approveShift(branchId: String, shiftDate: LocalDate, shiftType: String): String" style="text;strokeColor=none;fillColor=none;align=left;verticalAlign=top;spacingLeft=4;spacingRight=4;overflow=hidden;rotatable=0;points=[[0,0.5],[1,0.5]];portConstraint=eastwest;fontStyle=0;fontSize=7;" parent="3nhxtxOCKIJYej11kyEG-1" vertex="1">
          <mxGeometry y="336" width="500" height="16" as="geometry" />
        </mxCell>
        <mxCell id="bhEWnd2NRkioedVnW9Wu-52" value="+ addEmployeeToBranch(employeeId: String, branchId: String): String" style="text;strokeColor=none;fillColor=none;align=left;verticalAlign=top;spacingLeft=4;spacingRight=4;overflow=hidden;rotatable=0;points=[[0,0.5],[1,0.5]];portConstraint=eastwest;fontStyle=0;fontSize=7;" parent="3nhxtxOCKIJYej11kyEG-1" vertex="1">
          <mxGeometry y="352" width="500" height="16" as="geometry" />
        </mxCell>
        <mxCell id="bhEWnd2NRkioedVnW9Wu-53" value="+ deleteShift(branchId: String, shiftDate: LocalDate, shiftType: String): String" style="text;strokeColor=none;fillColor=none;align=left;verticalAlign=top;spacingLeft=4;spacingRight=4;overflow=hidden;rotatable=0;points=[[0,0.5],[1,0.5]];portConstraint=eastwest;fontStyle=0;fontSize=7;" parent="3nhxtxOCKIJYej11kyEG-1" vertex="1">
          <mxGeometry y="368" width="500" height="16" as="geometry" />
        </mxCell>
        <mxCell id="bhEWnd2NRkioedVnW9Wu-54" value="+ createBranch(branchId: String): String" style="text;strokeColor=none;fillColor=none;align=left;verticalAlign=top;spacingLeft=4;spacingRight=4;overflow=hidden;rotatable=0;points=[[0,0.5],[1,0.5]];portConstraint=eastwest;fontStyle=0;fontSize=7;" parent="3nhxtxOCKIJYej11kyEG-1" vertex="1">
          <mxGeometry y="384" width="500" height="16" as="geometry" />
        </mxCell>
        <mxCell id="bhEWnd2NRkioedVnW9Wu-55" value="+ updateBranchWorkingHours(branchId: String, morningStart: LocalTime, morningEnd: LocalTime, eveningStart: LocalTime, eveningEnd: LocalTime): String" style="text;strokeColor=none;fillColor=none;align=left;verticalAlign=top;spacingLeft=4;spacingRight=4;overflow=hidden;rotatable=0;points=[[0,0.5],[1,0.5]];portConstraint=eastwest;fontStyle=0;fontSize=7;" parent="3nhxtxOCKIJYej11kyEG-1" vertex="1">
          <mxGeometry y="400" width="500" height="16" as="geometry" />
        </mxCell>
        <mxCell id="bhEWnd2NRkioedVnW9Wu-57" value="+ updateEmployeeSalary(employeeId: String, hourlySalaryRate: double, salaryBonus: double): String" style="text;strokeColor=none;fillColor=none;align=left;verticalAlign=top;spacingLeft=4;spacingRight=4;overflow=hidden;rotatable=0;points=[[0,0.5],[1,0.5]];portConstraint=eastwest;fontStyle=0;fontSize=7;" parent="3nhxtxOCKIJYej11kyEG-1" vertex="1">
          <mxGeometry y="416" width="500" height="16" as="geometry" />
        </mxCell>
        <mxCell id="bhEWnd2NRkioedVnW9Wu-63" value="+ updateEmployeeBankDetails(employeeId: String, bankDetails: String): String" style="text;strokeColor=none;fillColor=none;align=left;verticalAlign=top;spacingLeft=4;spacingRight=4;overflow=hidden;rotatable=0;points=[[0,0.5],[1,0.5]];portConstraint=eastwest;fontStyle=0;fontSize=7;" parent="3nhxtxOCKIJYej11kyEG-1" vertex="1">
          <mxGeometry y="432" width="500" height="16" as="geometry" />
        </mxCell>
        <mxCell id="bhEWnd2NRkioedVnW9Wu-64" value="+ updateEmployeeEmploymentConditions(employeeId: String, employmentConditiosn: String): String" style="text;strokeColor=none;fillColor=none;align=left;verticalAlign=top;spacingLeft=4;spacingRight=4;overflow=hidden;rotatable=0;points=[[0,0.5],[1,0.5]];portConstraint=eastwest;fontStyle=0;fontSize=7;" parent="3nhxtxOCKIJYej11kyEG-1" vertex="1">
          <mxGeometry y="448" width="500" height="16" as="geometry" />
        </mxCell>
        <mxCell id="bhEWnd2NRkioedVnW9Wu-65" value="+ updateEmployeeDetails(employeeId: String, details: String): String" style="text;strokeColor=none;fillColor=none;align=left;verticalAlign=top;spacingLeft=4;spacingRight=4;overflow=hidden;rotatable=0;points=[[0,0.5],[1,0.5]];portConstraint=eastwest;fontStyle=0;fontSize=7;" parent="3nhxtxOCKIJYej11kyEG-1" vertex="1">
          <mxGeometry y="464" width="500" height="16" as="geometry" />
        </mxCell>
        <mxCell id="bhEWnd2NRkioedVnW9Wu-58" value="+ authorizeUser(username: String, autorization: String): String" style="text;strokeColor=none;fillColor=none;align=left;verticalAlign=top;spacingLeft=4;spacingRight=4;overflow=hidden;rotatable=0;points=[[0,0.5],[1,0.5]];portConstraint=eastwest;fontStyle=0;fontSize=7;" parent="3nhxtxOCKIJYej11kyEG-1" vertex="1">
          <mxGeometry y="480" width="500" height="16" as="geometry" />
        </mxCell>
        <mxCell id="bhEWnd2NRkioedVnW9Wu-59" value="+ cancelShiftRequest(branchId: String, shiftType: Stirng, shiftDate: LocalDate, role: String): String" style="text;strokeColor=none;fillColor=none;align=left;verticalAlign=top;spacingLeft=4;spacingRight=4;overflow=hidden;rotatable=0;points=[[0,0.5],[1,0.5]];portConstraint=eastwest;fontStyle=0;fontSize=7;" parent="3nhxtxOCKIJYej11kyEG-1" vertex="1">
          <mxGeometry y="496" width="500" height="16" as="geometry" />
        </mxCell>
        <mxCell id="bhEWnd2NRkioedVnW9Wu-60" value="+ reportShiftActivity(branchId: String, shiftDate: LocalDate, shiftType: String, activity:String): String" style="text;strokeColor=none;fillColor=none;align=left;verticalAlign=top;spacingLeft=4;spacingRight=4;overflow=hidden;rotatable=0;points=[[0,0.5],[1,0.5]];portConstraint=eastwest;fontStyle=0;fontSize=7;" parent="3nhxtxOCKIJYej11kyEG-1" vertex="1">
          <mxGeometry y="512" width="500" height="16" as="geometry" />
        </mxCell>
        <mxCell id="bhEWnd2NRkioedVnW9Wu-61" value="+ applyCancelCard(branchid: String, shiftDate: LocalDate, shiftType: String, productId: String): String" style="text;strokeColor=none;fillColor=none;align=left;verticalAlign=top;spacingLeft=4;spacingRight=4;overflow=hidden;rotatable=0;points=[[0,0.5],[1,0.5]];portConstraint=eastwest;fontStyle=0;fontSize=7;" parent="3nhxtxOCKIJYej11kyEG-1" vertex="1">
          <mxGeometry y="528" width="500" height="16" as="geometry" />
        </mxCell>
        <mxCell id="3nhxtxOCKIJYej11kyEG-10" value="&lt;b style=&quot;font-size: 9px;&quot;&gt;Service Layer&lt;/b&gt;" style="verticalAlign=top;align=center;spacingTop=8;spacingLeft=2;spacingRight=12;shape=cube;size=10;direction=south;fontStyle=4;html=1;fontSize=9;" parent="WIyWlLk6GJQsqaUBKTNV-1" vertex="1">
          <mxGeometry x="-820" y="20" width="810" height="1140" as="geometry" />
        </mxCell>
        <mxCell id="3nhxtxOCKIJYej11kyEG-47" value="uses" style="edgeStyle=orthogonalEdgeStyle;rounded=0;orthogonalLoop=1;jettySize=auto;html=1;startArrow=none;startFill=0;endArrow=classic;endFill=1;fontSize=9;exitX=-0.002;exitY=0.027;exitDx=0;exitDy=0;exitPerimeter=0;" parent="WIyWlLk6GJQsqaUBKTNV-1" source="3nhxtxOCKIJYej11kyEG-1" edge="1">
          <mxGeometry x="-0.1838" relative="1" as="geometry">
            <Array as="points">
              <mxPoint x="-664" y="-545" />
              <mxPoint x="-680" y="-545" />
              <mxPoint x="-680" y="80" />
              <mxPoint x="-620" y="80" />
            </Array>
            <mxPoint x="-620" y="250" as="targetPoint" />
            <mxPoint as="offset" />
            <mxPoint x="-520" y="-543" as="sourcePoint" />
          </mxGeometry>
        </mxCell>
        <mxCell id="3nhxtxOCKIJYej11kyEG-45" value="returns" style="edgeStyle=orthogonalEdgeStyle;rounded=0;orthogonalLoop=1;jettySize=auto;html=1;entryX=0;entryY=0.5;entryDx=0;entryDy=0;fontSize=9;" parent="WIyWlLk6GJQsqaUBKTNV-1" source="3nhxtxOCKIJYej11kyEG-15" target="3nhxtxOCKIJYej11kyEG-38" edge="1">
          <mxGeometry relative="1" as="geometry" />
        </mxCell>
        <mxCell id="3nhxtxOCKIJYej11kyEG-46" value="returns" style="edgeStyle=orthogonalEdgeStyle;rounded=0;orthogonalLoop=1;jettySize=auto;html=1;entryX=1;entryY=0.5;entryDx=0;entryDy=0;fontSize=9;" parent="WIyWlLk6GJQsqaUBKTNV-1" source="3nhxtxOCKIJYej11kyEG-23" target="3nhxtxOCKIJYej11kyEG-38" edge="1">
          <mxGeometry relative="1" as="geometry" />
        </mxCell>
        <mxCell id="3nhxtxOCKIJYej11kyEG-23" value="UserService" style="swimlane;fontStyle=1;align=center;verticalAlign=top;childLayout=stackLayout;horizontal=1;startSize=30;horizontalStack=0;resizeParent=1;resizeLast=0;collapsible=1;marginBottom=0;rounded=0;shadow=0;strokeWidth=1;fontSize=9;" parent="WIyWlLk6GJQsqaUBKTNV-1" vertex="1">
          <mxGeometry x="-360" y="250" width="330" height="552" as="geometry">
            <mxRectangle x="130" y="380" width="160" height="26" as="alternateBounds" />
          </mxGeometry>
        </mxCell>
        <mxCell id="3nhxtxOCKIJYej11kyEG-25" value="" style="line;html=1;strokeWidth=1;align=left;verticalAlign=middle;spacingTop=-1;spacingLeft=3;spacingRight=3;rotatable=0;labelPosition=right;points=[];portConstraint=eastwest;fontSize=9;" parent="3nhxtxOCKIJYej11kyEG-23" vertex="1">
          <mxGeometry y="30" width="330" height="8" as="geometry" />
        </mxCell>
        <mxCell id="yrnM3i_oS5V_zNQIPLy5-97" value="+ loadData(): void" style="text;html=1;align=left;verticalAlign=middle;resizable=0;points=[];autosize=1;strokeColor=none;fillColor=none;fontStyle=0;fontSize=8;" parent="3nhxtxOCKIJYej11kyEG-23" vertex="1">
          <mxGeometry y="38" width="330" height="20" as="geometry" />
        </mxCell>
        <mxCell id="yrnM3i_oS5V_zNQIPLy5-98" value="+ resetData(): void" style="text;html=1;align=left;verticalAlign=middle;resizable=0;points=[];autosize=1;strokeColor=none;fillColor=none;fontStyle=0;fontSize=8;" parent="3nhxtxOCKIJYej11kyEG-23" vertex="1">
          <mxGeometry y="58" width="330" height="20" as="geometry" />
        </mxCell>
        <mxCell id="tUeAErOg3bjmsSZB63ol-9" value="&lt;span style=&quot;font-size: 8px;&quot;&gt;+ login(String username, String password): json&lt;/span&gt;" style="text;html=1;align=left;verticalAlign=middle;resizable=0;points=[];autosize=1;strokeColor=none;fillColor=none;fontStyle=0;fontSize=8;" parent="3nhxtxOCKIJYej11kyEG-23" vertex="1">
          <mxGeometry y="78" width="330" height="20" as="geometry" />
        </mxCell>
        <mxCell id="tUeAErOg3bjmsSZB63ol-10" value="&lt;span style=&quot;font-size: 8px;&quot;&gt;+ logout(String username): json&lt;/span&gt;" style="text;html=1;align=left;verticalAlign=middle;resizable=0;points=[];autosize=1;strokeColor=none;fillColor=none;fontStyle=0;fontSize=8;" parent="3nhxtxOCKIJYej11kyEG-23" vertex="1">
          <mxGeometry y="98" width="330" height="20" as="geometry" />
        </mxCell>
        <mxCell id="tUeAErOg3bjmsSZB63ol-15" value="&lt;span style=&quot;font-size: 8px;&quot;&gt;+ createUser(String actorUsername, String username, String password): json&lt;/span&gt;" style="text;html=1;align=left;verticalAlign=middle;resizable=0;points=[];autosize=1;strokeColor=none;fillColor=none;fontStyle=0;fontSize=8;" parent="3nhxtxOCKIJYej11kyEG-23" vertex="1">
          <mxGeometry y="118" width="330" height="20" as="geometry" />
        </mxCell>
        <mxCell id="tUeAErOg3bjmsSZB63ol-21" value="&lt;span style=&quot;font-size: 8px;&quot;&gt;+ createManagerUser(String actorUsername, String username,&amp;nbsp;String password): json&lt;/span&gt;" style="text;html=1;align=left;verticalAlign=middle;resizable=0;points=[];autosize=1;strokeColor=none;fillColor=none;fontStyle=0;fontSize=8;" parent="3nhxtxOCKIJYej11kyEG-23" vertex="1">
          <mxGeometry y="138" width="330" height="20" as="geometry" />
        </mxCell>
        <mxCell id="tUeAErOg3bjmsSZB63ol-62" value="&lt;span style=&quot;font-size: 8px;&quot;&gt;+ isAuthorized(String username, String authorization) : json&lt;/span&gt;" style="text;html=1;align=left;verticalAlign=middle;resizable=0;points=[];autosize=1;strokeColor=none;fillColor=none;fontStyle=0;fontSize=8;" parent="3nhxtxOCKIJYej11kyEG-23" vertex="1">
          <mxGeometry y="158" width="330" height="20" as="geometry" />
        </mxCell>
        <mxCell id="8LfntfW58liq9RtOAsv0-3" value="&lt;span style=&quot;font-size: 8px;&quot;&gt;+ isAuthorized(String username, Authorization auth) : json&lt;/span&gt;" style="text;html=1;align=left;verticalAlign=middle;resizable=0;points=[];autosize=1;strokeColor=none;fillColor=none;fontStyle=0;fontSize=8;" parent="3nhxtxOCKIJYej11kyEG-23" vertex="1">
          <mxGeometry y="178" width="330" height="20" as="geometry" />
        </mxCell>
        <mxCell id="tUeAErOg3bjmsSZB63ol-63" value="&lt;span style=&quot;font-size: 8px;&quot;&gt;+ getUserAuthorizations(String username) : json&lt;/span&gt;" style="text;html=1;align=left;verticalAlign=middle;resizable=0;points=[];autosize=1;strokeColor=none;fillColor=none;fontStyle=0;fontSize=8;" parent="3nhxtxOCKIJYej11kyEG-23" vertex="1">
          <mxGeometry y="198" width="330" height="20" as="geometry" />
        </mxCell>
        <mxCell id="tUeAErOg3bjmsSZB63ol-117" value="&lt;span style=&quot;font-size: 8px;&quot;&gt;+ authorizeUser(String actorUsername, String username, String authorization): json&lt;/span&gt;" style="text;html=1;align=left;verticalAlign=middle;resizable=0;points=[];autosize=1;strokeColor=none;fillColor=none;fontStyle=0;fontSize=8;" parent="3nhxtxOCKIJYej11kyEG-23" vertex="1">
          <mxGeometry y="218" width="330" height="20" as="geometry" />
        </mxCell>
        <mxCell id="3nhxtxOCKIJYej11kyEG-36" value="Response&lt;T&gt;" style="swimlane;fontStyle=1;align=center;verticalAlign=top;childLayout=stackLayout;horizontal=1;startSize=26;horizontalStack=0;resizeParent=1;resizeParentMax=0;resizeLast=0;collapsible=1;marginBottom=0;fontSize=9;" parent="WIyWlLk6GJQsqaUBKTNV-1" vertex="1">
          <mxGeometry x="-558" y="70" width="320" height="138" as="geometry" />
        </mxCell>
        <mxCell id="3nhxtxOCKIJYej11kyEG-38" value="- returnValue: T" style="text;strokeColor=none;fillColor=none;align=left;verticalAlign=top;spacingLeft=4;spacingRight=4;overflow=hidden;rotatable=0;points=[[0,0.5],[1,0.5]];portConstraint=eastwest;fontSize=9;" parent="3nhxtxOCKIJYej11kyEG-36" vertex="1">
          <mxGeometry y="26" width="320" height="26" as="geometry" />
        </mxCell>
        <mxCell id="3nhxtxOCKIJYej11kyEG-39" value="- errorMessage: String" style="text;strokeColor=none;fillColor=none;align=left;verticalAlign=top;spacingLeft=4;spacingRight=4;overflow=hidden;rotatable=0;points=[[0,0.5],[1,0.5]];portConstraint=eastwest;fontStyle=0;fontSize=9;" parent="3nhxtxOCKIJYej11kyEG-36" vertex="1">
          <mxGeometry y="52" width="320" height="26" as="geometry" />
        </mxCell>
        <mxCell id="3nhxtxOCKIJYej11kyEG-37" value="" style="line;strokeWidth=1;fillColor=none;align=left;verticalAlign=middle;spacingTop=-1;spacingLeft=3;spacingRight=3;rotatable=0;labelPosition=right;points=[];portConstraint=eastwest;fontSize=9;" parent="3nhxtxOCKIJYej11kyEG-36" vertex="1">
          <mxGeometry y="78" width="320" height="8" as="geometry" />
        </mxCell>
        <mxCell id="tUeAErOg3bjmsSZB63ol-11" value="+ createErrorResponse(String errorMessage): Response" style="text;strokeColor=none;fillColor=none;align=left;verticalAlign=top;spacingLeft=4;spacingRight=4;overflow=hidden;rotatable=0;points=[[0,0.5],[1,0.5]];portConstraint=eastwest;fontStyle=4;fontSize=9;" parent="3nhxtxOCKIJYej11kyEG-36" vertex="1">
          <mxGeometry y="86" width="320" height="26" as="geometry" />
        </mxCell>
        <mxCell id="tUeAErOg3bjmsSZB63ol-12" value="+ errorOccurred(): boolean" style="text;strokeColor=none;fillColor=none;align=left;verticalAlign=top;spacingLeft=4;spacingRight=4;overflow=hidden;rotatable=0;points=[[0,0.5],[1,0.5]];portConstraint=eastwest;fontStyle=0;fontSize=9;" parent="3nhxtxOCKIJYej11kyEG-36" vertex="1">
          <mxGeometry y="112" width="320" height="26" as="geometry" />
        </mxCell>
        <mxCell id="3nhxtxOCKIJYej11kyEG-48" value="uses" style="edgeStyle=orthogonalEdgeStyle;rounded=0;orthogonalLoop=1;jettySize=auto;html=1;startArrow=none;startFill=0;endArrow=blockThin;endFill=1;strokeWidth=1;fontSize=9;exitX=1;exitY=0.5;exitDx=0;exitDy=0;" parent="WIyWlLk6GJQsqaUBKTNV-1" source="yrnM3i_oS5V_zNQIPLy5-46" edge="1">
          <mxGeometry relative="1" as="geometry">
            <mxPoint x="-120" y="-500" as="sourcePoint" />
            <mxPoint x="-60" y="250" as="targetPoint" />
            <Array as="points">
              <mxPoint x="-163" y="-512" />
              <mxPoint x="-60" y="-512" />
            </Array>
          </mxGeometry>
        </mxCell>
        <mxCell id="bhEWnd2NRkioedVnW9Wu-103" value="using" style="edgeStyle=orthogonalEdgeStyle;rounded=0;orthogonalLoop=1;jettySize=auto;html=1;dashed=1;endArrow=open;endFill=0;" parent="WIyWlLk6GJQsqaUBKTNV-1" source="3nhxtxOCKIJYej11kyEG-49" edge="1">
          <mxGeometry relative="1" as="geometry">
            <mxPoint x="-415" y="2370" as="targetPoint" />
          </mxGeometry>
        </mxCell>
        <mxCell id="3nhxtxOCKIJYej11kyEG-49" value="&lt;b style=&quot;font-size: 9px;&quot;&gt;Business Layer&lt;/b&gt;" style="verticalAlign=top;align=center;spacingTop=8;spacingLeft=2;spacingRight=12;shape=cube;size=10;direction=south;fontStyle=4;html=1;fontSize=9;" parent="WIyWlLk6GJQsqaUBKTNV-1" vertex="1">
          <mxGeometry x="-820" y="1200" width="810" height="1130" as="geometry" />
        </mxCell>
        <mxCell id="tUeAErOg3bjmsSZB63ol-16" value="uses" style="edgeStyle=orthogonalEdgeStyle;rounded=0;orthogonalLoop=1;jettySize=auto;html=1;entryX=0;entryY=0.617;entryDx=0;entryDy=0;entryPerimeter=0;startArrow=none;startFill=0;endArrow=classic;endFill=1;fontSize=9;" parent="WIyWlLk6GJQsqaUBKTNV-1" source="TPDy2men3T0ADZxq4F-W-15" edge="1">
          <mxGeometry relative="1" as="geometry">
            <Array as="points">
              <mxPoint x="-370" y="1342" />
              <mxPoint x="-370" y="1290" />
              <mxPoint x="-360" y="1290" />
            </Array>
            <mxPoint x="-360" y="1289.3399999999997" as="targetPoint" />
          </mxGeometry>
        </mxCell>
        <mxCell id="tUeAErOg3bjmsSZB63ol-20" value="uses" style="edgeStyle=orthogonalEdgeStyle;rounded=0;orthogonalLoop=1;jettySize=auto;html=1;startArrow=classic;startFill=1;endArrow=none;endFill=0;fontSize=9;" parent="WIyWlLk6GJQsqaUBKTNV-1" source="TPDy2men3T0ADZxq4F-W-15" edge="1">
          <mxGeometry x="0.1034" relative="1" as="geometry">
            <mxPoint x="-790" y="880" as="targetPoint" />
            <Array as="points">
              <mxPoint x="-589" y="1180" />
              <mxPoint x="-790" y="1180" />
            </Array>
            <mxPoint as="offset" />
          </mxGeometry>
        </mxCell>
        <mxCell id="tUeAErOg3bjmsSZB63ol-171" value="(using EmployeeDAO)" style="edgeStyle=orthogonalEdgeStyle;rounded=0;orthogonalLoop=1;jettySize=auto;html=1;startArrow=diamondThin;startFill=1;endArrow=none;endFill=0;fontSize=7;" parent="WIyWlLk6GJQsqaUBKTNV-1" source="TPDy2men3T0ADZxq4F-W-15" edge="1">
          <mxGeometry x="-0.0807" relative="1" as="geometry">
            <mxPoint x="-560" y="1580" as="targetPoint" />
            <Array as="points">
              <mxPoint x="-680" y="1560" />
              <mxPoint x="-570" y="1560" />
              <mxPoint x="-570" y="1580" />
            </Array>
            <mxPoint as="offset" />
          </mxGeometry>
        </mxCell>
        <mxCell id="TPDy2men3T0ADZxq4F-W-15" value="&lt;&lt;Singleton&gt;&gt;&#xa;EmployeeController" style="swimlane;fontStyle=1;align=center;verticalAlign=top;childLayout=stackLayout;horizontal=1;startSize=42;horizontalStack=0;resizeParent=1;resizeLast=0;collapsible=1;marginBottom=0;rounded=0;shadow=0;strokeWidth=1;fontSize=9;" parent="WIyWlLk6GJQsqaUBKTNV-1" vertex="1">
          <mxGeometry x="-798.63" y="1237" width="418.63" height="310" as="geometry">
            <mxRectangle x="130" y="380" width="160" height="26" as="alternateBounds" />
          </mxGeometry>
        </mxCell>
        <mxCell id="TPDy2men3T0ADZxq4F-W-18" value="" style="line;html=1;strokeWidth=1;align=left;verticalAlign=middle;spacingTop=-1;spacingLeft=3;spacingRight=3;rotatable=0;labelPosition=right;points=[];portConstraint=eastwest;fontSize=9;" parent="TPDy2men3T0ADZxq4F-W-15" vertex="1">
          <mxGeometry y="42" width="418.63" height="8" as="geometry" />
        </mxCell>
        <mxCell id="yrnM3i_oS5V_zNQIPLy5-100" value="+ resetData(): void" style="text;html=1;align=left;verticalAlign=middle;resizable=0;points=[];autosize=1;strokeColor=none;fillColor=none;fontStyle=0;fontSize=9;" parent="TPDy2men3T0ADZxq4F-W-15" vertex="1">
          <mxGeometry y="50" width="418.63" height="20" as="geometry" />
        </mxCell>
        <mxCell id="tUeAErOg3bjmsSZB63ol-26" value="+ recruitEmployee(Branch branch,&amp;nbsp;String employeeId, String bankDetails,LocalDate employmentDate,&lt;br&gt;&amp;nbsp; &amp;nbsp; &amp;nbsp; &amp;nbsp; &amp;nbsp; &amp;nbsp;String employmentConditions, String details): boolean" style="text;html=1;align=left;verticalAlign=middle;resizable=0;points=[];autosize=1;strokeColor=none;fillColor=none;fontStyle=0;fontSize=9;" parent="TPDy2men3T0ADZxq4F-W-15" vertex="1">
          <mxGeometry y="70" width="418.63" height="40" as="geometry" />
        </mxCell>
        <mxCell id="tUeAErOg3bjmsSZB63ol-190" value="+ certifyEmployee(String employeeId, Role role): boolean" style="text;html=1;align=left;verticalAlign=middle;resizable=0;points=[];autosize=1;strokeColor=none;fillColor=none;fontStyle=0;fontSize=9;" parent="TPDy2men3T0ADZxq4F-W-15" vertex="1">
          <mxGeometry y="110" width="418.63" height="20" as="geometry" />
        </mxCell>
        <mxCell id="tUeAErOg3bjmsSZB63ol-94" value="+ getBranch(String branchId): Branch" style="text;html=1;align=left;verticalAlign=middle;resizable=0;points=[];autosize=1;strokeColor=none;fillColor=none;fontStyle=0;fontSize=9;" parent="TPDy2men3T0ADZxq4F-W-15" vertex="1">
          <mxGeometry y="130" width="418.63" height="20" as="geometry" />
        </mxCell>
        <mxCell id="tUeAErOg3bjmsSZB63ol-95" value="&lt;span style=&quot;font-size: 9px;&quot;&gt;+ createBranch(String branchId): Branch&lt;/span&gt;" style="text;html=1;align=left;verticalAlign=middle;resizable=0;points=[];autosize=1;strokeColor=none;fillColor=none;fontStyle=0;fontSize=9;" parent="TPDy2men3T0ADZxq4F-W-15" vertex="1">
          <mxGeometry y="150" width="418.63" height="20" as="geometry" />
        </mxCell>
        <mxCell id="uiuGp3_7cZ-gmYXxnTxB-25" value="&lt;span style=&quot;font-size: 9px;&quot;&gt;+ addEmployeeToBranch(String branchId, String employeeId): void&lt;/span&gt;" style="text;html=1;align=left;verticalAlign=middle;resizable=0;points=[];autosize=1;strokeColor=none;fillColor=none;fontStyle=0;fontSize=9;" parent="TPDy2men3T0ADZxq4F-W-15" vertex="1">
          <mxGeometry y="170" width="418.63" height="20" as="geometry" />
        </mxCell>
        <mxCell id="uiuGp3_7cZ-gmYXxnTxB-26" value="&lt;span style=&quot;font-size: 9px;&quot;&gt;+ updateBranchWorkingHours(String brancHid, LocalTime morningStart, LocalTime morningEnd,&lt;br&gt;&amp;nbsp; &amp;nbsp; &amp;nbsp; &amp;nbsp; &amp;nbsp; &amp;nbsp; &amp;nbsp; &amp;nbsp; &amp;nbsp; LocalTime eveningStart, LocalTime eveningEnd): void&lt;br&gt;&lt;/span&gt;" style="text;html=1;align=left;verticalAlign=middle;resizable=0;points=[];autosize=1;strokeColor=none;fillColor=none;fontStyle=0;fontSize=9;" parent="TPDy2men3T0ADZxq4F-W-15" vertex="1">
          <mxGeometry y="190" width="418.63" height="40" as="geometry" />
        </mxCell>
        <mxCell id="bhEWnd2NRkioedVnW9Wu-172" value="&lt;span style=&quot;font-size: 9px;&quot;&gt;+ getAvailableDrivers(dateTime: LocalDateTime): List&amp;lt;Employee&amp;gt;&lt;br&gt;&lt;/span&gt;" style="text;html=1;align=left;verticalAlign=middle;resizable=0;points=[];autosize=1;strokeColor=none;fillColor=none;fontStyle=0;fontSize=9;" parent="TPDy2men3T0ADZxq4F-W-15" vertex="1">
          <mxGeometry y="230" width="418.63" height="20" as="geometry" />
        </mxCell>
        <mxCell id="bhEWnd2NRkioedVnW9Wu-173" value="&lt;span style=&quot;font-size: 9px;&quot;&gt;+ checkStorekeepeerAvailability(date: LocalDate, branchAddress: String): void&lt;br&gt;&lt;/span&gt;" style="text;html=1;align=left;verticalAlign=middle;resizable=0;points=[];autosize=1;strokeColor=none;fillColor=none;fontStyle=0;fontSize=9;" parent="TPDy2men3T0ADZxq4F-W-15" vertex="1">
          <mxGeometry y="250" width="418.63" height="20" as="geometry" />
        </mxCell>
        <mxCell id="tUeAErOg3bjmsSZB63ol-46" value="holds" style="edgeStyle=orthogonalEdgeStyle;rounded=0;orthogonalLoop=1;jettySize=auto;html=1;startArrow=none;startFill=0;endArrow=classic;endFill=1;entryX=0.991;entryY=0.694;entryDx=0;entryDy=0;entryPerimeter=0;exitX=-0.005;exitY=0.774;exitDx=0;exitDy=0;exitPerimeter=0;fontSize=9;" parent="WIyWlLk6GJQsqaUBKTNV-1" source="yrnM3i_oS5V_zNQIPLy5-0" target="tUeAErOg3bjmsSZB63ol-39" edge="1">
          <mxGeometry x="-0.1061" relative="1" as="geometry">
            <mxPoint x="-154" y="1606" as="targetPoint" />
            <Array as="points">
              <mxPoint x="-230" y="1697" />
              <mxPoint x="-230" y="1654" />
            </Array>
            <mxPoint as="offset" />
          </mxGeometry>
        </mxCell>
        <mxCell id="TPDy2men3T0ADZxq4F-W-9" value="User" style="swimlane;fontStyle=1;align=center;verticalAlign=top;childLayout=stackLayout;horizontal=1;startSize=26;horizontalStack=0;resizeParent=1;resizeLast=0;collapsible=1;marginBottom=0;rounded=0;shadow=0;strokeWidth=1;fontSize=9;" parent="WIyWlLk6GJQsqaUBKTNV-1" vertex="1">
          <mxGeometry x="-221" y="1616" width="191" height="254" as="geometry">
            <mxRectangle x="130" y="380" width="160" height="26" as="alternateBounds" />
          </mxGeometry>
        </mxCell>
        <mxCell id="TPDy2men3T0ADZxq4F-W-69" value="- username: String" style="text;html=1;align=left;verticalAlign=middle;resizable=0;points=[];autosize=1;strokeColor=none;fillColor=none;fontSize=9;" parent="TPDy2men3T0ADZxq4F-W-9" vertex="1">
          <mxGeometry y="26" width="191" height="20" as="geometry" />
        </mxCell>
        <mxCell id="TPDy2men3T0ADZxq4F-W-72" value="- password: String" style="text;html=1;align=left;verticalAlign=middle;resizable=0;points=[];autosize=1;strokeColor=none;fillColor=none;fontSize=9;" parent="TPDy2men3T0ADZxq4F-W-9" vertex="1">
          <mxGeometry y="46" width="191" height="20" as="geometry" />
        </mxCell>
        <mxCell id="yrnM3i_oS5V_zNQIPLy5-0" value="- loggedIn: boolean" style="text;html=1;align=left;verticalAlign=middle;resizable=0;points=[];autosize=1;strokeColor=none;fillColor=none;fontSize=9;" parent="TPDy2men3T0ADZxq4F-W-9" vertex="1">
          <mxGeometry y="66" width="191" height="20" as="geometry" />
        </mxCell>
        <mxCell id="TPDy2men3T0ADZxq4F-W-12" value="" style="line;html=1;strokeWidth=1;align=left;verticalAlign=middle;spacingTop=-1;spacingLeft=3;spacingRight=3;rotatable=0;labelPosition=right;points=[];portConstraint=eastwest;fontSize=9;" parent="TPDy2men3T0ADZxq4F-W-9" vertex="1">
          <mxGeometry y="86" width="191" height="8" as="geometry" />
        </mxCell>
        <mxCell id="tUeAErOg3bjmsSZB63ol-22" value="&lt;span style=&quot;font-size: 9px;&quot;&gt;+ isAuthorized(Authorization auth): boolean&lt;/span&gt;" style="text;html=1;align=left;verticalAlign=middle;resizable=0;points=[];autosize=1;strokeColor=none;fillColor=none;fontStyle=0;fontSize=9;" parent="TPDy2men3T0ADZxq4F-W-9" vertex="1">
          <mxGeometry y="94" width="191" height="20" as="geometry" />
        </mxCell>
        <mxCell id="yrnM3i_oS5V_zNQIPLy5-1" value="&lt;span style=&quot;font-size: 9px;&quot;&gt;+ login(String password): boolean&lt;/span&gt;" style="text;html=1;align=left;verticalAlign=middle;resizable=0;points=[];autosize=1;strokeColor=none;fillColor=none;fontStyle=0;fontSize=9;" parent="TPDy2men3T0ADZxq4F-W-9" vertex="1">
          <mxGeometry y="114" width="191" height="20" as="geometry" />
        </mxCell>
        <mxCell id="yrnM3i_oS5V_zNQIPLy5-2" value="&lt;span style=&quot;font-size: 9px;&quot;&gt;+ logout(): void&lt;/span&gt;" style="text;html=1;align=left;verticalAlign=middle;resizable=0;points=[];autosize=1;strokeColor=none;fillColor=none;fontStyle=0;fontSize=9;" parent="TPDy2men3T0ADZxq4F-W-9" vertex="1">
          <mxGeometry y="134" width="191" height="20" as="geometry" />
        </mxCell>
        <mxCell id="uiuGp3_7cZ-gmYXxnTxB-28" value="&lt;span style=&quot;font-size: 9px;&quot;&gt;+ authorize(Authorization auth): void&lt;/span&gt;" style="text;html=1;align=left;verticalAlign=middle;resizable=0;points=[];autosize=1;strokeColor=none;fillColor=none;fontStyle=0;fontSize=9;" parent="TPDy2men3T0ADZxq4F-W-9" vertex="1">
          <mxGeometry y="154" width="191" height="20" as="geometry" />
        </mxCell>
        <mxCell id="tUeAErOg3bjmsSZB63ol-1" value="uses" style="edgeStyle=orthogonalEdgeStyle;rounded=0;orthogonalLoop=1;jettySize=auto;html=1;endArrow=none;endFill=0;exitX=0.925;exitY=0.001;exitDx=0;exitDy=0;startArrow=classic;startFill=1;exitPerimeter=0;fontSize=9;" parent="WIyWlLk6GJQsqaUBKTNV-1" source="TPDy2men3T0ADZxq4F-W-21" edge="1">
          <mxGeometry relative="1" as="geometry">
            <mxPoint x="-55" y="800" as="targetPoint" />
            <Array as="points">
              <mxPoint x="-55" y="1020" />
              <mxPoint x="-55" y="1020" />
            </Array>
          </mxGeometry>
        </mxCell>
        <mxCell id="tUeAErOg3bjmsSZB63ol-47" value="uses" style="edgeStyle=orthogonalEdgeStyle;rounded=0;orthogonalLoop=1;jettySize=auto;html=1;entryX=0.5;entryY=0;entryDx=0;entryDy=0;startArrow=none;startFill=0;endArrow=classic;endFill=1;fontSize=7;" parent="WIyWlLk6GJQsqaUBKTNV-1" target="tUeAErOg3bjmsSZB63ol-32" edge="1">
          <mxGeometry relative="1" as="geometry">
            <mxPoint x="-260" y="1565" as="sourcePoint" />
            <Array as="points">
              <mxPoint x="-260" y="1565" />
              <mxPoint x="-260" y="1570" />
              <mxPoint x="-301" y="1570" />
            </Array>
          </mxGeometry>
        </mxCell>
        <mxCell id="TPDy2men3T0ADZxq4F-W-21" value="&lt;&lt;Singleton&gt;&gt;&#xa;UserController" style="swimlane;fontStyle=1;align=center;verticalAlign=top;childLayout=stackLayout;horizontal=1;startSize=40;horizontalStack=0;resizeParent=1;resizeLast=0;collapsible=1;marginBottom=0;rounded=0;shadow=0;strokeWidth=1;fontSize=9;" parent="WIyWlLk6GJQsqaUBKTNV-1" vertex="1">
          <mxGeometry x="-360" y="1237" width="330" height="328" as="geometry">
            <mxRectangle x="130" y="380" width="160" height="26" as="alternateBounds" />
          </mxGeometry>
        </mxCell>
        <mxCell id="TPDy2men3T0ADZxq4F-W-24" value="" style="line;html=1;strokeWidth=1;align=left;verticalAlign=middle;spacingTop=-1;spacingLeft=3;spacingRight=3;rotatable=0;labelPosition=right;points=[];portConstraint=eastwest;fontSize=9;" parent="TPDy2men3T0ADZxq4F-W-21" vertex="1">
          <mxGeometry y="40" width="330" height="8" as="geometry" />
        </mxCell>
        <mxCell id="yrnM3i_oS5V_zNQIPLy5-99" value="+ resetData(): void" style="text;html=1;align=left;verticalAlign=middle;resizable=0;points=[];autosize=1;strokeColor=none;fillColor=none;fontStyle=0;fontSize=9;" parent="TPDy2men3T0ADZxq4F-W-21" vertex="1">
          <mxGeometry y="48" width="330" height="20" as="geometry" />
        </mxCell>
        <mxCell id="tUeAErOg3bjmsSZB63ol-17" value="+ login(String username, String password): boolean" style="text;html=1;align=left;verticalAlign=middle;resizable=0;points=[];autosize=1;strokeColor=none;fillColor=none;fontStyle=0;fontSize=9;" parent="TPDy2men3T0ADZxq4F-W-21" vertex="1">
          <mxGeometry y="68" width="330" height="20" as="geometry" />
        </mxCell>
        <mxCell id="tUeAErOg3bjmsSZB63ol-23" value="&lt;span style=&quot;font-size: 9px;&quot;&gt;+ logout(String username, String password): void&lt;/span&gt;" style="text;html=1;align=left;verticalAlign=middle;resizable=0;points=[];autosize=1;strokeColor=none;fillColor=none;fontStyle=0;fontSize=9;" parent="TPDy2men3T0ADZxq4F-W-21" vertex="1">
          <mxGeometry y="88" width="330" height="20" as="geometry" />
        </mxCell>
        <mxCell id="tUeAErOg3bjmsSZB63ol-24" value="&lt;span style=&quot;font-size: 9px;&quot;&gt;+ createUser(String username,&amp;nbsp;String password): boolean&lt;/span&gt;" style="text;html=1;align=left;verticalAlign=middle;resizable=0;points=[];autosize=1;strokeColor=none;fillColor=none;fontStyle=0;fontSize=9;" parent="TPDy2men3T0ADZxq4F-W-21" vertex="1">
          <mxGeometry y="108" width="330" height="20" as="geometry" />
        </mxCell>
        <mxCell id="yrnM3i_oS5V_zNQIPLy5-3" value="&lt;span style=&quot;font-size: 9px;&quot;&gt;+ createManagerUser(String username,&amp;nbsp;String password)&lt;br style=&quot;font-size: 9px;&quot;&gt;&amp;nbsp; &amp;nbsp; &amp;nbsp; &amp;nbsp; &amp;nbsp; &amp;nbsp; &amp;nbsp; &amp;nbsp; &amp;nbsp;: boolean&lt;/span&gt;" style="text;html=1;align=left;verticalAlign=middle;resizable=0;points=[];autosize=1;strokeColor=none;fillColor=none;fontStyle=0;fontSize=9;" parent="TPDy2men3T0ADZxq4F-W-21" vertex="1">
          <mxGeometry y="128" width="330" height="40" as="geometry" />
        </mxCell>
        <mxCell id="tUeAErOg3bjmsSZB63ol-25" value="&lt;span style=&quot;font-size: 9px;&quot;&gt;+ isAuthorized(String username, Authorization auth): boolean&lt;/span&gt;" style="text;html=1;align=left;verticalAlign=middle;resizable=0;points=[];autosize=1;strokeColor=none;fillColor=none;fontStyle=0;fontSize=9;" parent="TPDy2men3T0ADZxq4F-W-21" vertex="1">
          <mxGeometry y="168" width="330" height="20" as="geometry" />
        </mxCell>
        <mxCell id="tUeAErOg3bjmsSZB63ol-28" value="&lt;span style=&quot;font-size: 9px;&quot;&gt;+ getUserAuthorizations(String username): Set&amp;lt;Authorization&amp;gt;&lt;/span&gt;" style="text;html=1;align=left;verticalAlign=middle;resizable=0;points=[];autosize=1;strokeColor=none;fillColor=none;fontStyle=0;fontSize=9;" parent="TPDy2men3T0ADZxq4F-W-21" vertex="1">
          <mxGeometry y="188" width="330" height="20" as="geometry" />
        </mxCell>
        <mxCell id="tUeAErOg3bjmsSZB63ol-118" value="&lt;span style=&quot;font-size: 9px;&quot;&gt;+ authorizeUser(String username,&amp;nbsp;Authorization auth): void&lt;br style=&quot;font-size: 9px;&quot;&gt;&lt;/span&gt;" style="text;html=1;align=left;verticalAlign=middle;resizable=0;points=[];autosize=1;strokeColor=none;fillColor=none;fontStyle=0;fontSize=9;" parent="TPDy2men3T0ADZxq4F-W-21" vertex="1">
          <mxGeometry y="208" width="330" height="20" as="geometry" />
        </mxCell>
        <mxCell id="tUeAErOg3bjmsSZB63ol-0" value="uses" style="edgeStyle=orthogonalEdgeStyle;rounded=0;orthogonalLoop=1;jettySize=auto;html=1;fontSize=9;" parent="WIyWlLk6GJQsqaUBKTNV-1" source="3nhxtxOCKIJYej11kyEG-1" edge="1">
          <mxGeometry x="0.4118" relative="1" as="geometry">
            <mxPoint x="-500" y="70" as="targetPoint" />
            <Array as="points">
              <mxPoint x="-500" y="70" />
            </Array>
            <mxPoint as="offset" />
          </mxGeometry>
        </mxCell>
        <mxCell id="tUeAErOg3bjmsSZB63ol-145" value="uses" style="edgeStyle=orthogonalEdgeStyle;rounded=0;orthogonalLoop=1;jettySize=auto;html=1;startArrow=none;startFill=0;endArrow=classic;endFill=1;entryX=0.002;entryY=0.052;entryDx=0;entryDy=0;entryPerimeter=0;fontSize=8;" parent="WIyWlLk6GJQsqaUBKTNV-1" source="3nhxtxOCKIJYej11kyEG-15" target="tUeAErOg3bjmsSZB63ol-132" edge="1">
          <mxGeometry x="0.9327" relative="1" as="geometry">
            <mxPoint x="-830" y="1750" as="targetPoint" />
            <Array as="points">
              <mxPoint x="-810" y="614" />
              <mxPoint x="-810" y="1857" />
              <mxPoint x="-804" y="1857" />
            </Array>
            <mxPoint as="offset" />
          </mxGeometry>
        </mxCell>
        <mxCell id="bhEWnd2NRkioedVnW9Wu-121" style="edgeStyle=orthogonalEdgeStyle;rounded=0;orthogonalLoop=1;jettySize=auto;html=1;" parent="WIyWlLk6GJQsqaUBKTNV-1" edge="1">
          <mxGeometry relative="1" as="geometry">
            <mxPoint x="-818" y="121" as="targetPoint" />
            <mxPoint x="-778" y="251" as="sourcePoint" />
            <Array as="points">
              <mxPoint x="-778" y="121" />
            </Array>
          </mxGeometry>
        </mxCell>
        <mxCell id="3nhxtxOCKIJYej11kyEG-15" value="EmployeesService" style="swimlane;fontStyle=1;align=center;verticalAlign=top;childLayout=stackLayout;horizontal=1;startSize=30;horizontalStack=0;resizeParent=1;resizeLast=0;collapsible=1;marginBottom=0;rounded=0;shadow=0;strokeWidth=1;fontSize=9;" parent="WIyWlLk6GJQsqaUBKTNV-1" vertex="1">
          <mxGeometry x="-805" y="250" width="435" height="638" as="geometry">
            <mxRectangle x="130" y="380" width="160" height="26" as="alternateBounds" />
          </mxGeometry>
        </mxCell>
        <mxCell id="3nhxtxOCKIJYej11kyEG-18" value="" style="line;html=1;strokeWidth=1;align=left;verticalAlign=middle;spacingTop=-1;spacingLeft=3;spacingRight=3;rotatable=0;labelPosition=right;points=[];portConstraint=eastwest;fontSize=9;" parent="3nhxtxOCKIJYej11kyEG-15" vertex="1">
          <mxGeometry y="30" width="435" height="8" as="geometry" />
        </mxCell>
        <mxCell id="yrnM3i_oS5V_zNQIPLy5-79" value="+ loadData(): void" style="text;html=1;align=left;verticalAlign=middle;resizable=0;points=[];autosize=1;strokeColor=none;fillColor=none;fontStyle=0;fontSize=8;" parent="3nhxtxOCKIJYej11kyEG-15" vertex="1">
          <mxGeometry y="38" width="435" height="20" as="geometry" />
        </mxCell>
        <mxCell id="yrnM3i_oS5V_zNQIPLy5-80" value="+ resetData(): void" style="text;html=1;align=left;verticalAlign=middle;resizable=0;points=[];autosize=1;strokeColor=none;fillColor=none;fontStyle=0;fontSize=8;" parent="3nhxtxOCKIJYej11kyEG-15" vertex="1">
          <mxGeometry y="58" width="435" height="20" as="geometry" />
        </mxCell>
        <mxCell id="tUeAErOg3bjmsSZB63ol-3" value="&lt;span style=&quot;font-size: 8px;&quot;&gt;+ recruitEmployee(String actorUsername, String branchId, String employeeId, String bankDetails,&lt;br style=&quot;font-size: 8px;&quot;&gt;&amp;nbsp; &amp;nbsp; &amp;nbsp; &amp;nbsp; &amp;nbsp; &amp;nbsp;LocalDate employmentDate,&amp;nbsp;String employmentConditions, String details): json&lt;/span&gt;" style="text;html=1;align=left;verticalAlign=middle;resizable=0;points=[];autosize=1;strokeColor=none;fillColor=none;fontStyle=0;fontSize=8;" parent="3nhxtxOCKIJYej11kyEG-15" vertex="1">
          <mxGeometry y="78" width="435" height="30" as="geometry" />
        </mxCell>
        <mxCell id="uiuGp3_7cZ-gmYXxnTxB-4" value="&lt;span style=&quot;font-size: 8px;&quot;&gt;+ addEmployeeToBranch(String actorUsername, String employeeId, String branchId): json&lt;/span&gt;" style="text;html=1;align=left;verticalAlign=middle;resizable=0;points=[];autosize=1;strokeColor=none;fillColor=none;fontStyle=0;fontSize=8;" parent="3nhxtxOCKIJYej11kyEG-15" vertex="1">
          <mxGeometry y="108" width="435" height="20" as="geometry" />
        </mxCell>
        <mxCell id="tUeAErOg3bjmsSZB63ol-29" value="&lt;span style=&quot;font-size: 8px;&quot;&gt;+ createWeekShifts(String actorUsername, String branchId,&amp;nbsp;LocalDate weekStart): json&lt;/span&gt;" style="text;html=1;align=left;verticalAlign=middle;resizable=0;points=[];autosize=1;strokeColor=none;fillColor=none;fontStyle=0;fontSize=8;" parent="3nhxtxOCKIJYej11kyEG-15" vertex="1">
          <mxGeometry y="128" width="435" height="20" as="geometry" />
        </mxCell>
        <mxCell id="tUeAErOg3bjmsSZB63ol-83" value="&lt;span style=&quot;font-size: 8px;&quot;&gt;+ setShiftNeededAmount(String actorUsername, String branchId,&lt;br style=&quot;font-size: 8px;&quot;&gt;&amp;nbsp; &amp;nbsp; &amp;nbsp; &amp;nbsp; &amp;nbsp; &amp;nbsp; LocalDate shiftDate, SShiftType type, String role, int amount) : json&lt;/span&gt;" style="text;html=1;align=left;verticalAlign=middle;resizable=0;points=[];autosize=1;strokeColor=none;fillColor=none;fontStyle=0;fontSize=8;" parent="3nhxtxOCKIJYej11kyEG-15" vertex="1">
          <mxGeometry y="148" width="435" height="30" as="geometry" />
        </mxCell>
        <mxCell id="tUeAErOg3bjmsSZB63ol-30" value="&lt;span style=&quot;font-size: 8px;&quot;&gt;+ requestShift(String actorUsername, String branchId, LocalDate shiftDate, SShiftType shiftType): json&lt;/span&gt;" style="text;html=1;align=left;verticalAlign=middle;resizable=0;points=[];autosize=1;strokeColor=none;fillColor=none;fontStyle=0;fontSize=8;" parent="3nhxtxOCKIJYej11kyEG-15" vertex="1">
          <mxGeometry y="178" width="435" height="20" as="geometry" />
        </mxCell>
        <mxCell id="uiuGp3_7cZ-gmYXxnTxB-6" value="+ cancelShiftRequest(String actorUsername, String branchId, LocalDate shiftDate, SShiftType shiftType&lt;br style=&quot;font-size: 8px;&quot;&gt;&amp;nbsp; &amp;nbsp; &amp;nbsp; &amp;nbsp; &amp;nbsp; &amp;nbsp; &amp;nbsp; &amp;nbsp; &amp;nbsp; &amp;nbsp; &amp;nbsp; &amp;nbsp; &amp;nbsp; &amp;nbsp; String role): json" style="text;html=1;align=left;verticalAlign=middle;resizable=0;points=[];autosize=1;strokeColor=none;fillColor=none;fontStyle=0;fontSize=8;" parent="3nhxtxOCKIJYej11kyEG-15" vertex="1">
          <mxGeometry y="198" width="435" height="30" as="geometry" />
        </mxCell>
        <mxCell id="tUeAErOg3bjmsSZB63ol-31" value="&lt;span style=&quot;font-size: 8px;&quot;&gt;+ getWeekShifts(LocalDate shiftDate, String branchId, LocalDate weekStart)&lt;br style=&quot;font-size: 8px;&quot;&gt;&amp;nbsp; &amp;nbsp; &amp;nbsp; &amp;nbsp; &amp;nbsp; &amp;nbsp; : json&lt;/span&gt;" style="text;html=1;align=left;verticalAlign=middle;resizable=0;points=[];autosize=1;strokeColor=none;fillColor=none;fontStyle=0;fontSize=8;" parent="3nhxtxOCKIJYej11kyEG-15" vertex="1">
          <mxGeometry y="228" width="435" height="30" as="geometry" />
        </mxCell>
        <mxCell id="tUeAErOg3bjmsSZB63ol-82" value="&lt;span style=&quot;font-size: 8px;&quot;&gt;+ setShiftEmployees(String actorUsername, String branchId, LocalDate shiftDate,&lt;br style=&quot;font-size: 8px;&quot;&gt;&amp;nbsp; &amp;nbsp; &amp;nbsp; &amp;nbsp; &amp;nbsp; &amp;nbsp; SShiftType shiftType, String role,&amp;nbsp;List&amp;lt;String&amp;gt; employeeIds): json&lt;/span&gt;" style="text;html=1;align=left;verticalAlign=middle;resizable=0;points=[];autosize=1;strokeColor=none;fillColor=none;fontStyle=0;fontSize=8;" parent="3nhxtxOCKIJYej11kyEG-15" vertex="1">
          <mxGeometry y="258" width="435" height="30" as="geometry" />
        </mxCell>
        <mxCell id="tUeAErOg3bjmsSZB63ol-120" value="+ createBranch(String actorUsername, String branchId): json" style="text;html=1;align=left;verticalAlign=middle;resizable=0;points=[];autosize=1;strokeColor=none;fillColor=none;fontStyle=0;fontSize=8;" parent="3nhxtxOCKIJYej11kyEG-15" vertex="1">
          <mxGeometry y="288" width="435" height="20" as="geometry" />
        </mxCell>
        <mxCell id="yrnM3i_oS5V_zNQIPLy5-68" value="+ getEmployeeShifts(String actorUsername): json" style="text;html=1;align=left;verticalAlign=middle;resizable=0;points=[];autosize=1;strokeColor=none;fillColor=none;fontStyle=0;fontSize=8;" parent="3nhxtxOCKIJYej11kyEG-15" vertex="1">
          <mxGeometry y="308" width="435" height="20" as="geometry" />
        </mxCell>
        <mxCell id="uiuGp3_7cZ-gmYXxnTxB-8" value="+ getEmployee(String actorUsername): json" style="text;html=1;align=left;verticalAlign=middle;resizable=0;points=[];autosize=1;strokeColor=none;fillColor=none;fontStyle=0;fontSize=8;" parent="3nhxtxOCKIJYej11kyEG-15" vertex="1">
          <mxGeometry y="328" width="435" height="20" as="geometry" />
        </mxCell>
        <mxCell id="yrnM3i_oS5V_zNQIPLy5-78" value="+ certifyEmployee(String actorUsername, String employeeId, String role): json" style="text;html=1;align=left;verticalAlign=middle;resizable=0;points=[];autosize=1;strokeColor=none;fillColor=none;fontStyle=0;fontSize=8;" parent="3nhxtxOCKIJYej11kyEG-15" vertex="1">
          <mxGeometry y="348" width="435" height="20" as="geometry" />
        </mxCell>
        <mxCell id="uiuGp3_7cZ-gmYXxnTxB-5" value="+ uncertifyEmployee(String actorUsername, String employeeId, String role): json" style="text;html=1;align=left;verticalAlign=middle;resizable=0;points=[];autosize=1;strokeColor=none;fillColor=none;fontStyle=0;fontSize=8;" parent="3nhxtxOCKIJYej11kyEG-15" vertex="1">
          <mxGeometry y="368" width="435" height="20" as="geometry" />
        </mxCell>
        <mxCell id="bhEWnd2NRkioedVnW9Wu-86" value="+ certifyDriver(actorUsername: String, employeeId: String, driverLicense: String: json" style="text;html=1;align=left;verticalAlign=middle;resizable=0;points=[];autosize=1;strokeColor=none;fillColor=none;fontStyle=0;fontSize=8;" parent="3nhxtxOCKIJYej11kyEG-15" vertex="1">
          <mxGeometry y="388" width="435" height="20" as="geometry" />
        </mxCell>
        <mxCell id="uiuGp3_7cZ-gmYXxnTxB-9" value="+ approveShift(String actorUsername, String branchId, LocalDate shiftDate, SShiftType shiftType): json" style="text;html=1;align=left;verticalAlign=middle;resizable=0;points=[];autosize=1;strokeColor=none;fillColor=none;fontStyle=0;fontSize=8;" parent="3nhxtxOCKIJYej11kyEG-15" vertex="1">
          <mxGeometry y="408" width="435" height="20" as="geometry" />
        </mxCell>
        <mxCell id="8LfntfW58liq9RtOAsv0-0" value="+ applyCancelCard(String actorUsername, String branchId, LocalDate shiftDate, SShiftType shiftType,&lt;br style=&quot;font-size: 8px;&quot;&gt;&amp;nbsp; &amp;nbsp; &amp;nbsp; &amp;nbsp; &amp;nbsp; &amp;nbsp; &amp;nbsp; &amp;nbsp; &amp;nbsp; &amp;nbsp;String productId): json" style="text;html=1;align=left;verticalAlign=middle;resizable=0;points=[];autosize=1;strokeColor=none;fillColor=none;fontStyle=0;fontSize=8;" parent="3nhxtxOCKIJYej11kyEG-15" vertex="1">
          <mxGeometry y="428" width="435" height="30" as="geometry" />
        </mxCell>
        <mxCell id="uiuGp3_7cZ-gmYXxnTxB-13" value="+ reportShiftActivity(String actorUsername, String branchId, LocalDate shiftDate, SShiftType shiftType,&lt;br style=&quot;font-size: 8px;&quot;&gt;&amp;nbsp; &amp;nbsp; &amp;nbsp; &amp;nbsp; &amp;nbsp; &amp;nbsp; &amp;nbsp; &amp;nbsp; &amp;nbsp; &amp;nbsp; String activity): json" style="text;html=1;align=left;verticalAlign=middle;resizable=0;points=[];autosize=1;strokeColor=none;fillColor=none;fontStyle=0;fontSize=8;" parent="3nhxtxOCKIJYej11kyEG-15" vertex="1">
          <mxGeometry y="458" width="435" height="30" as="geometry" />
        </mxCell>
        <mxCell id="uiuGp3_7cZ-gmYXxnTxB-7" value="+ deleteShift(String actorUsername, String branchId, LocalDate shiftDate, SShiftType shiftType):&amp;nbsp;json" style="text;html=1;align=left;verticalAlign=middle;resizable=0;points=[];autosize=1;strokeColor=none;fillColor=none;fontStyle=0;fontSize=8;" parent="3nhxtxOCKIJYej11kyEG-15" vertex="1">
          <mxGeometry y="488" width="435" height="20" as="geometry" />
        </mxCell>
        <mxCell id="uiuGp3_7cZ-gmYXxnTxB-11" value="+ updateBranchWorkingHours(String actorUsername,. String branchId, LocalTime morningStart,&lt;br style=&quot;font-size: 8px;&quot;&gt;&amp;nbsp; &amp;nbsp; &amp;nbsp; &amp;nbsp; &amp;nbsp; &amp;nbsp; &amp;nbsp; &amp;nbsp; &amp;nbsp;LocalTime morningEnd, LocalTime eveningStart, LocalTime eveningEnd): json" style="text;html=1;align=left;verticalAlign=middle;resizable=0;points=[];autosize=1;strokeColor=none;fillColor=none;fontStyle=0;fontSize=8;" parent="3nhxtxOCKIJYej11kyEG-15" vertex="1">
          <mxGeometry y="508" width="435" height="30" as="geometry" />
        </mxCell>
        <mxCell id="uiuGp3_7cZ-gmYXxnTxB-10" value="+ updateEmployeeSalary(String actorUsername, String employeeId, double hourlySalaryRate, double salaryBonus): json" style="text;html=1;align=left;verticalAlign=middle;resizable=0;points=[];autosize=1;strokeColor=none;fillColor=none;fontStyle=0;fontSize=8;" parent="3nhxtxOCKIJYej11kyEG-15" vertex="1">
          <mxGeometry y="538" width="435" height="20" as="geometry" />
        </mxCell>
        <mxCell id="bhEWnd2NRkioedVnW9Wu-66" value="+ getAvailableDrivers(atDateTime: String): String" style="text;html=1;align=left;verticalAlign=middle;resizable=0;points=[];autosize=1;strokeColor=none;fillColor=none;fontStyle=0;fontSize=8;" parent="3nhxtxOCKIJYej11kyEG-15" vertex="1">
          <mxGeometry y="558" width="435" height="20" as="geometry" />
        </mxCell>
        <mxCell id="bhEWnd2NRkioedVnW9Wu-28" value="creates" style="edgeStyle=orthogonalEdgeStyle;rounded=0;orthogonalLoop=1;jettySize=auto;html=1;" parent="3nhxtxOCKIJYej11kyEG-15" edge="1">
          <mxGeometry relative="1" as="geometry">
            <mxPoint x="132" y="-110" as="sourcePoint" />
            <mxPoint x="132" as="targetPoint" />
            <Array as="points">
              <mxPoint x="132" />
              <mxPoint x="132" />
            </Array>
          </mxGeometry>
        </mxCell>
        <mxCell id="bhEWnd2NRkioedVnW9Wu-174" value="+ checkStoreKeeperAvailability(dateToCheck: Strring, branchAddress: String): String" style="text;html=1;align=left;verticalAlign=middle;resizable=0;points=[];autosize=1;strokeColor=none;fillColor=none;fontStyle=0;fontSize=8;" parent="3nhxtxOCKIJYej11kyEG-15" vertex="1">
          <mxGeometry y="578" width="435" height="20" as="geometry" />
        </mxCell>
        <mxCell id="tUeAErOg3bjmsSZB63ol-32" value="&lt;&lt;Enum&gt;&gt;&#xa;Authorization" style="swimlane;fontStyle=1;align=center;verticalAlign=top;childLayout=stackLayout;horizontal=1;startSize=40;horizontalStack=0;resizeParent=1;resizeLast=0;collapsible=1;marginBottom=0;rounded=0;shadow=0;strokeWidth=1;fontSize=9;" parent="WIyWlLk6GJQsqaUBKTNV-1" vertex="1">
          <mxGeometry x="-360" y="1580" width="117" height="200" as="geometry">
            <mxRectangle x="130" y="380" width="160" height="26" as="alternateBounds" />
          </mxGeometry>
        </mxCell>
        <mxCell id="tUeAErOg3bjmsSZB63ol-33" value="HRManager" style="text;html=1;align=left;verticalAlign=middle;resizable=0;points=[];autosize=1;strokeColor=none;fillColor=none;fontSize=9;" parent="tUeAErOg3bjmsSZB63ol-32" vertex="1">
          <mxGeometry y="40" width="117" height="20" as="geometry" />
        </mxCell>
        <mxCell id="tUeAErOg3bjmsSZB63ol-39" value="Cashier" style="text;html=1;align=left;verticalAlign=middle;resizable=0;points=[];autosize=1;strokeColor=none;fillColor=none;fontSize=9;" parent="tUeAErOg3bjmsSZB63ol-32" vertex="1">
          <mxGeometry y="60" width="117" height="20" as="geometry" />
        </mxCell>
        <mxCell id="tUeAErOg3bjmsSZB63ol-38" value="Storekeeper" style="text;html=1;align=left;verticalAlign=middle;resizable=0;points=[];autosize=1;strokeColor=none;fillColor=none;fontSize=9;" parent="tUeAErOg3bjmsSZB63ol-32" vertex="1">
          <mxGeometry y="80" width="117" height="20" as="geometry" />
        </mxCell>
        <mxCell id="tUeAErOg3bjmsSZB63ol-40" value="ShiftManager" style="text;html=1;align=left;verticalAlign=middle;resizable=0;points=[];autosize=1;strokeColor=none;fillColor=none;fontSize=9;" parent="tUeAErOg3bjmsSZB63ol-32" vertex="1">
          <mxGeometry y="100" width="117" height="20" as="geometry" />
        </mxCell>
        <mxCell id="tUeAErOg3bjmsSZB63ol-41" value="TransportManager" style="text;html=1;align=left;verticalAlign=middle;resizable=0;points=[];autosize=1;strokeColor=none;fillColor=none;fontSize=9;" parent="tUeAErOg3bjmsSZB63ol-32" vertex="1">
          <mxGeometry y="120" width="117" height="20" as="geometry" />
        </mxCell>
        <mxCell id="tUeAErOg3bjmsSZB63ol-56" value="Branch" style="swimlane;fontStyle=1;align=center;verticalAlign=top;childLayout=stackLayout;horizontal=1;startSize=26;horizontalStack=0;resizeParent=1;resizeLast=0;collapsible=1;marginBottom=0;rounded=0;shadow=0;strokeWidth=1;fontSize=9;" parent="WIyWlLk6GJQsqaUBKTNV-1" vertex="1">
          <mxGeometry x="-776.5" y="1578" width="180" height="114" as="geometry">
            <mxRectangle x="130" y="380" width="160" height="26" as="alternateBounds" />
          </mxGeometry>
        </mxCell>
        <mxCell id="tUeAErOg3bjmsSZB63ol-99" value="- LocalTime morningStart" style="text;html=1;align=left;verticalAlign=middle;resizable=0;points=[];autosize=1;strokeColor=none;fillColor=none;fontSize=9;" parent="tUeAErOg3bjmsSZB63ol-56" vertex="1">
          <mxGeometry y="26" width="180" height="20" as="geometry" />
        </mxCell>
        <mxCell id="uiuGp3_7cZ-gmYXxnTxB-14" value="- LocalTime morningEnd" style="text;html=1;align=left;verticalAlign=middle;resizable=0;points=[];autosize=1;strokeColor=none;fillColor=none;fontSize=9;" parent="tUeAErOg3bjmsSZB63ol-56" vertex="1">
          <mxGeometry y="46" width="180" height="20" as="geometry" />
        </mxCell>
        <mxCell id="uiuGp3_7cZ-gmYXxnTxB-15" value="- LocalTime eveningStart" style="text;html=1;align=left;verticalAlign=middle;resizable=0;points=[];autosize=1;strokeColor=none;fillColor=none;fontSize=9;" parent="tUeAErOg3bjmsSZB63ol-56" vertex="1">
          <mxGeometry y="66" width="180" height="20" as="geometry" />
        </mxCell>
        <mxCell id="uiuGp3_7cZ-gmYXxnTxB-16" value="- LocalTime eveningEnd" style="text;html=1;align=left;verticalAlign=middle;resizable=0;points=[];autosize=1;strokeColor=none;fillColor=none;fontSize=9;" parent="tUeAErOg3bjmsSZB63ol-56" vertex="1">
          <mxGeometry y="86" width="180" height="20" as="geometry" />
        </mxCell>
        <mxCell id="tUeAErOg3bjmsSZB63ol-60" value="" style="line;html=1;strokeWidth=1;align=left;verticalAlign=middle;spacingTop=-1;spacingLeft=3;spacingRight=3;rotatable=0;labelPosition=right;points=[];portConstraint=eastwest;fontSize=9;" parent="tUeAErOg3bjmsSZB63ol-56" vertex="1">
          <mxGeometry y="106" width="180" height="8" as="geometry" />
        </mxCell>
        <mxCell id="PrzoaaxdOy5b0EUcsDEy-1" value="has" style="edgeStyle=orthogonalEdgeStyle;rounded=0;orthogonalLoop=1;jettySize=auto;html=1;entryX=-0.019;entryY=0.209;entryDx=0;entryDy=0;entryPerimeter=0;" parent="WIyWlLk6GJQsqaUBKTNV-1" source="tUeAErOg3bjmsSZB63ol-79" target="tUeAErOg3bjmsSZB63ol-86" edge="1">
          <mxGeometry relative="1" as="geometry" />
        </mxCell>
        <mxCell id="PrzoaaxdOy5b0EUcsDEy-2" value="0..*" style="edgeStyle=orthogonalEdgeStyle;rounded=0;orthogonalLoop=1;jettySize=auto;html=1;entryX=-0.008;entryY=0.855;entryDx=0;entryDy=0;entryPerimeter=0;endArrow=none;endFill=0;startArrow=diamondThin;startFill=1;" parent="WIyWlLk6GJQsqaUBKTNV-1" source="tUeAErOg3bjmsSZB63ol-79" target="tUeAErOg3bjmsSZB63ol-106" edge="1">
          <mxGeometry x="0.7588" relative="1" as="geometry">
            <Array as="points">
              <mxPoint x="-460" y="1013" />
              <mxPoint x="-460" y="1013" />
            </Array>
            <mxPoint as="offset" />
          </mxGeometry>
        </mxCell>
        <mxCell id="bhEWnd2NRkioedVnW9Wu-91" value="returns as json" style="edgeStyle=orthogonalEdgeStyle;rounded=0;orthogonalLoop=1;jettySize=auto;html=1;endArrow=none;endFill=0;startArrow=classic;startFill=1;" parent="WIyWlLk6GJQsqaUBKTNV-1" source="tUeAErOg3bjmsSZB63ol-79" edge="1">
          <mxGeometry relative="1" as="geometry">
            <mxPoint x="-590" y="888" as="targetPoint" />
            <Array as="points">
              <mxPoint x="-590" y="890" />
              <mxPoint x="-590" y="890" />
            </Array>
          </mxGeometry>
        </mxCell>
        <mxCell id="tUeAErOg3bjmsSZB63ol-79" value="SShift" style="swimlane;fontStyle=1;align=center;verticalAlign=top;childLayout=stackLayout;horizontal=1;startSize=30;horizontalStack=0;resizeParent=1;resizeLast=0;collapsible=1;marginBottom=0;rounded=0;shadow=0;strokeWidth=1;fontSize=9;" parent="WIyWlLk6GJQsqaUBKTNV-1" vertex="1">
          <mxGeometry x="-776.5" y="1006" width="290" height="138" as="geometry">
            <mxRectangle x="130" y="380" width="160" height="26" as="alternateBounds" />
          </mxGeometry>
        </mxCell>
        <mxCell id="tUeAErOg3bjmsSZB63ol-103" value="- shiftDate: LocalDate" style="text;html=1;align=left;verticalAlign=middle;resizable=0;points=[];autosize=1;strokeColor=none;fillColor=none;fontSize=9;" parent="tUeAErOg3bjmsSZB63ol-79" vertex="1">
          <mxGeometry y="30" width="290" height="20" as="geometry" />
        </mxCell>
        <mxCell id="tUeAErOg3bjmsSZB63ol-104" value="- shiftType: ShiftType" style="text;html=1;align=left;verticalAlign=middle;resizable=0;points=[];autosize=1;strokeColor=none;fillColor=none;fontSize=9;" parent="tUeAErOg3bjmsSZB63ol-79" vertex="1">
          <mxGeometry y="50" width="290" height="20" as="geometry" />
        </mxCell>
        <mxCell id="tUeAErOg3bjmsSZB63ol-80" value="- shiftRequests: Map&amp;lt;String,List&amp;lt;SEmployee&amp;gt;&amp;gt;" style="text;html=1;align=left;verticalAlign=middle;resizable=0;points=[];autosize=1;strokeColor=none;fillColor=none;fontSize=9;" parent="tUeAErOg3bjmsSZB63ol-79" vertex="1">
          <mxGeometry y="70" width="290" height="20" as="geometry" />
        </mxCell>
        <mxCell id="tUeAErOg3bjmsSZB63ol-84" value="- shiftWorkers: Map&amp;lt;String,List&amp;lt;SEmployee&amp;gt;&amp;gt;" style="text;html=1;align=left;verticalAlign=middle;resizable=0;points=[];autosize=1;strokeColor=none;fillColor=none;fontSize=9;" parent="tUeAErOg3bjmsSZB63ol-79" vertex="1">
          <mxGeometry y="90" width="290" height="20" as="geometry" />
        </mxCell>
        <mxCell id="yrnM3i_oS5V_zNQIPLy5-76" value="- isApproved: boolean" style="text;html=1;align=left;verticalAlign=middle;resizable=0;points=[];autosize=1;strokeColor=none;fillColor=none;fontSize=9;" parent="tUeAErOg3bjmsSZB63ol-79" vertex="1">
          <mxGeometry y="110" width="290" height="20" as="geometry" />
        </mxCell>
        <mxCell id="tUeAErOg3bjmsSZB63ol-81" value="" style="line;html=1;strokeWidth=1;align=left;verticalAlign=middle;spacingTop=-1;spacingLeft=3;spacingRight=3;rotatable=0;labelPosition=right;points=[];portConstraint=eastwest;fontSize=9;" parent="tUeAErOg3bjmsSZB63ol-79" vertex="1">
          <mxGeometry y="130" width="290" height="8" as="geometry" />
        </mxCell>
        <mxCell id="tUeAErOg3bjmsSZB63ol-85" value="&lt;&lt;Enum&gt;&gt;&#xa;SShiftType" style="swimlane;fontStyle=1;align=center;verticalAlign=top;childLayout=stackLayout;horizontal=1;startSize=40;horizontalStack=0;resizeParent=1;resizeLast=0;collapsible=1;marginBottom=0;rounded=0;shadow=0;strokeWidth=1;fontSize=9;" parent="WIyWlLk6GJQsqaUBKTNV-1" vertex="1">
          <mxGeometry x="-447" y="1031" width="80" height="88" as="geometry">
            <mxRectangle x="130" y="380" width="160" height="26" as="alternateBounds" />
          </mxGeometry>
        </mxCell>
        <mxCell id="tUeAErOg3bjmsSZB63ol-86" value="Morning" style="text;html=1;align=middle;verticalAlign=middle;resizable=0;points=[];autosize=1;strokeColor=none;fillColor=none;imageAlign=left;fontSize=9;" parent="tUeAErOg3bjmsSZB63ol-85" vertex="1">
          <mxGeometry y="40" width="80" height="20" as="geometry" />
        </mxCell>
        <mxCell id="tUeAErOg3bjmsSZB63ol-87" value="Evening" style="text;html=1;align=middle;verticalAlign=middle;resizable=0;points=[];autosize=1;strokeColor=none;fillColor=none;fontSize=9;" parent="tUeAErOg3bjmsSZB63ol-85" vertex="1">
          <mxGeometry y="60" width="80" height="20" as="geometry" />
        </mxCell>
        <mxCell id="tUeAErOg3bjmsSZB63ol-88" value="" style="line;html=1;strokeWidth=1;align=left;verticalAlign=middle;spacingTop=-1;spacingLeft=3;spacingRight=3;rotatable=0;labelPosition=right;points=[];portConstraint=eastwest;fontSize=9;" parent="tUeAErOg3bjmsSZB63ol-85" vertex="1">
          <mxGeometry y="80" width="80" height="8" as="geometry" />
        </mxCell>
        <mxCell id="tUeAErOg3bjmsSZB63ol-174" value="(using BranchesDAO)" style="edgeStyle=orthogonalEdgeStyle;rounded=0;orthogonalLoop=1;jettySize=auto;html=1;startArrow=diamondThin;startFill=1;endArrow=none;endFill=0;fontSize=7;entryX=-0.003;entryY=0.808;entryDx=0;entryDy=0;entryPerimeter=0;" parent="WIyWlLk6GJQsqaUBKTNV-1" target="tUeAErOg3bjmsSZB63ol-99" edge="1">
          <mxGeometry x="-0.5241" y="21" relative="1" as="geometry">
            <Array as="points">
              <mxPoint x="-791" y="1620" />
            </Array>
            <mxPoint x="-791" y="1550" as="sourcePoint" />
            <mxPoint as="offset" />
            <mxPoint x="-764" y="1620" as="targetPoint" />
          </mxGeometry>
        </mxCell>
        <mxCell id="tUeAErOg3bjmsSZB63ol-105" value="SEmployee" style="swimlane;fontStyle=1;align=center;verticalAlign=top;childLayout=stackLayout;horizontal=1;startSize=30;horizontalStack=0;resizeParent=1;resizeLast=0;collapsible=1;marginBottom=0;rounded=0;shadow=0;strokeWidth=1;fontSize=9;" parent="WIyWlLk6GJQsqaUBKTNV-1" vertex="1">
          <mxGeometry x="-330" y="966" width="150" height="178" as="geometry">
            <mxRectangle x="130" y="380" width="160" height="26" as="alternateBounds" />
          </mxGeometry>
        </mxCell>
        <mxCell id="tUeAErOg3bjmsSZB63ol-106" value="- fullName: String" style="text;html=1;align=left;verticalAlign=middle;resizable=0;points=[];autosize=1;strokeColor=none;fillColor=none;fontSize=9;" parent="tUeAErOg3bjmsSZB63ol-105" vertex="1">
          <mxGeometry y="30" width="150" height="20" as="geometry" />
        </mxCell>
        <mxCell id="tUeAErOg3bjmsSZB63ol-107" value="- id: String" style="text;html=1;align=left;verticalAlign=middle;resizable=0;points=[];autosize=1;strokeColor=none;fillColor=none;fontSize=9;" parent="tUeAErOg3bjmsSZB63ol-105" vertex="1">
          <mxGeometry y="50" width="150" height="20" as="geometry" />
        </mxCell>
        <mxCell id="yrnM3i_oS5V_zNQIPLy5-75" value="- employmentDate: String" style="text;html=1;align=left;verticalAlign=middle;resizable=0;points=[];autosize=1;strokeColor=none;fillColor=none;fontSize=9;" parent="tUeAErOg3bjmsSZB63ol-105" vertex="1">
          <mxGeometry y="70" width="150" height="20" as="geometry" />
        </mxCell>
        <mxCell id="yrnM3i_oS5V_zNQIPLy5-72" value="- employmentConditions: String" style="text;html=1;align=left;verticalAlign=middle;resizable=0;points=[];autosize=1;strokeColor=none;fillColor=none;fontSize=9;" parent="tUeAErOg3bjmsSZB63ol-105" vertex="1">
          <mxGeometry y="90" width="150" height="20" as="geometry" />
        </mxCell>
        <mxCell id="yrnM3i_oS5V_zNQIPLy5-73" value="- details: String" style="text;html=1;align=left;verticalAlign=middle;resizable=0;points=[];autosize=1;strokeColor=none;fillColor=none;fontSize=9;" parent="tUeAErOg3bjmsSZB63ol-105" vertex="1">
          <mxGeometry y="110" width="150" height="20" as="geometry" />
        </mxCell>
        <mxCell id="yrnM3i_oS5V_zNQIPLy5-71" value="- expectedSalary: double" style="text;html=1;align=left;verticalAlign=middle;resizable=0;points=[];autosize=1;strokeColor=none;fillColor=none;fontSize=9;" parent="tUeAErOg3bjmsSZB63ol-105" vertex="1">
          <mxGeometry y="130" width="150" height="20" as="geometry" />
        </mxCell>
        <mxCell id="yrnM3i_oS5V_zNQIPLy5-74" value="- roles: Set&amp;lt;String&amp;gt;" style="text;html=1;align=left;verticalAlign=middle;resizable=0;points=[];autosize=1;strokeColor=none;fillColor=none;fontSize=9;" parent="tUeAErOg3bjmsSZB63ol-105" vertex="1">
          <mxGeometry y="150" width="150" height="20" as="geometry" />
        </mxCell>
        <mxCell id="tUeAErOg3bjmsSZB63ol-110" value="" style="line;html=1;strokeWidth=1;align=left;verticalAlign=middle;spacingTop=-1;spacingLeft=3;spacingRight=3;rotatable=0;labelPosition=right;points=[];portConstraint=eastwest;fontSize=9;" parent="tUeAErOg3bjmsSZB63ol-105" vertex="1">
          <mxGeometry y="170" width="150" height="8" as="geometry" />
        </mxCell>
        <mxCell id="tUeAErOg3bjmsSZB63ol-194" value="has" style="edgeStyle=orthogonalEdgeStyle;rounded=0;orthogonalLoop=1;jettySize=auto;html=1;entryX=0.008;entryY=0.472;entryDx=0;entryDy=0;entryPerimeter=0;startArrow=none;startFill=0;endArrow=classic;endFill=1;fontSize=9;" parent="WIyWlLk6GJQsqaUBKTNV-1" source="tUeAErOg3bjmsSZB63ol-124" target="tUeAErOg3bjmsSZB63ol-187" edge="1">
          <mxGeometry relative="1" as="geometry">
            <Array as="points">
              <mxPoint x="-370" y="1710" />
              <mxPoint x="-370" y="1834" />
              <mxPoint x="-359" y="1834" />
            </Array>
          </mxGeometry>
        </mxCell>
        <mxCell id="tUeAErOg3bjmsSZB63ol-124" value="Employee" style="swimlane;fontStyle=1;align=center;verticalAlign=top;childLayout=stackLayout;horizontal=1;startSize=26;horizontalStack=0;resizeParent=1;resizeLast=0;collapsible=1;marginBottom=0;rounded=0;shadow=0;strokeWidth=1;fontSize=9;" parent="WIyWlLk6GJQsqaUBKTNV-1" vertex="1">
          <mxGeometry x="-558" y="1558" width="180" height="222" as="geometry">
            <mxRectangle x="130" y="380" width="160" height="26" as="alternateBounds" />
          </mxGeometry>
        </mxCell>
        <mxCell id="tUeAErOg3bjmsSZB63ol-125" value="- fullName: String" style="text;html=1;align=left;verticalAlign=middle;resizable=0;points=[];autosize=1;strokeColor=none;fillColor=none;fontSize=9;" parent="tUeAErOg3bjmsSZB63ol-124" vertex="1">
          <mxGeometry y="26" width="180" height="20" as="geometry" />
        </mxCell>
        <mxCell id="tUeAErOg3bjmsSZB63ol-126" value="- ID: String" style="text;html=1;align=left;verticalAlign=middle;resizable=0;points=[];autosize=1;strokeColor=none;fillColor=none;fontSize=9;" parent="tUeAErOg3bjmsSZB63ol-124" vertex="1">
          <mxGeometry y="46" width="180" height="20" as="geometry" />
        </mxCell>
        <mxCell id="tUeAErOg3bjmsSZB63ol-128" value="- bankDetails: String" style="text;html=1;align=left;verticalAlign=middle;resizable=0;points=[];autosize=1;strokeColor=none;fillColor=none;fontSize=9;" parent="tUeAErOg3bjmsSZB63ol-124" vertex="1">
          <mxGeometry y="66" width="180" height="20" as="geometry" />
        </mxCell>
        <mxCell id="uiuGp3_7cZ-gmYXxnTxB-22" value="- hourlySalaryRate: double" style="text;html=1;align=left;verticalAlign=middle;resizable=0;points=[];autosize=1;strokeColor=none;fillColor=none;fontSize=9;" parent="tUeAErOg3bjmsSZB63ol-124" vertex="1">
          <mxGeometry y="86" width="180" height="20" as="geometry" />
        </mxCell>
        <mxCell id="uiuGp3_7cZ-gmYXxnTxB-23" value="- monthlyHours: double" style="text;html=1;align=left;verticalAlign=middle;resizable=0;points=[];autosize=1;strokeColor=none;fillColor=none;fontSize=9;" parent="tUeAErOg3bjmsSZB63ol-124" vertex="1">
          <mxGeometry y="106" width="180" height="20" as="geometry" />
        </mxCell>
        <mxCell id="uiuGp3_7cZ-gmYXxnTxB-24" value="- salaryBonus: double" style="text;html=1;align=left;verticalAlign=middle;resizable=0;points=[];autosize=1;strokeColor=none;fillColor=none;fontSize=9;" parent="tUeAErOg3bjmsSZB63ol-124" vertex="1">
          <mxGeometry y="126" width="180" height="20" as="geometry" />
        </mxCell>
        <mxCell id="tUeAErOg3bjmsSZB63ol-129" value="- employmentDate: LocalDate" style="text;html=1;align=left;verticalAlign=middle;resizable=0;points=[];autosize=1;strokeColor=none;fillColor=none;fontSize=9;" parent="tUeAErOg3bjmsSZB63ol-124" vertex="1">
          <mxGeometry y="146" width="180" height="20" as="geometry" />
        </mxCell>
        <mxCell id="tUeAErOg3bjmsSZB63ol-130" value="- employmentConditions: String" style="text;html=1;align=left;verticalAlign=middle;resizable=0;points=[];autosize=1;strokeColor=none;fillColor=none;fontSize=9;" parent="tUeAErOg3bjmsSZB63ol-124" vertex="1">
          <mxGeometry y="166" width="180" height="20" as="geometry" />
        </mxCell>
        <mxCell id="tUeAErOg3bjmsSZB63ol-131" value="- details: String" style="text;html=1;align=left;verticalAlign=middle;resizable=0;points=[];autosize=1;strokeColor=none;fillColor=none;fontSize=9;" parent="tUeAErOg3bjmsSZB63ol-124" vertex="1">
          <mxGeometry y="186" width="180" height="20" as="geometry" />
        </mxCell>
        <mxCell id="tUeAErOg3bjmsSZB63ol-127" value="" style="line;html=1;strokeWidth=1;align=left;verticalAlign=middle;spacingTop=-1;spacingLeft=3;spacingRight=3;rotatable=0;labelPosition=right;points=[];portConstraint=eastwest;fontSize=9;" parent="tUeAErOg3bjmsSZB63ol-124" vertex="1">
          <mxGeometry y="206" width="180" height="8" as="geometry" />
        </mxCell>
        <mxCell id="tUeAErOg3bjmsSZB63ol-132" value="ShiftController" style="swimlane;fontStyle=1;align=center;verticalAlign=top;childLayout=stackLayout;horizontal=1;startSize=18;horizontalStack=0;resizeParent=1;resizeLast=0;collapsible=1;marginBottom=0;rounded=0;shadow=0;strokeWidth=1;fontSize=9;" parent="WIyWlLk6GJQsqaUBKTNV-1" vertex="1">
          <mxGeometry x="-805" y="1832" width="425" height="490" as="geometry">
            <mxRectangle x="130" y="380" width="160" height="26" as="alternateBounds" />
          </mxGeometry>
        </mxCell>
        <mxCell id="tUeAErOg3bjmsSZB63ol-135" value="" style="line;html=1;strokeWidth=1;align=left;verticalAlign=middle;spacingTop=-1;spacingLeft=3;spacingRight=3;rotatable=0;labelPosition=right;points=[];portConstraint=eastwest;fontSize=9;" parent="tUeAErOg3bjmsSZB63ol-132" vertex="1">
          <mxGeometry y="18" width="425" height="8" as="geometry" />
        </mxCell>
        <mxCell id="bhEWnd2NRkioedVnW9Wu-175" value="+ resetData(): void" style="text;html=1;align=left;verticalAlign=middle;resizable=0;points=[];autosize=1;strokeColor=none;fillColor=none;fontStyle=0;fontSize=9;" parent="tUeAErOg3bjmsSZB63ol-132" vertex="1">
          <mxGeometry y="26" width="425" height="20" as="geometry" />
        </mxCell>
        <mxCell id="tUeAErOg3bjmsSZB63ol-136" value="+ getShift(String branchId, LocalDate shiftDate, ShiftType shiftType): Shift" style="text;html=1;align=left;verticalAlign=middle;resizable=0;points=[];autosize=1;strokeColor=none;fillColor=none;fontStyle=0;fontSize=9;" parent="tUeAErOg3bjmsSZB63ol-132" vertex="1">
          <mxGeometry y="46" width="425" height="20" as="geometry" />
        </mxCell>
        <mxCell id="yrnM3i_oS5V_zNQIPLy5-65" value="+ shiftExists(String branchId, LocalDate shiftDate, ShiftType shiftType: boolean" style="text;html=1;align=left;verticalAlign=middle;resizable=0;points=[];autosize=1;strokeColor=none;fillColor=none;fontStyle=0;fontSize=9;" parent="tUeAErOg3bjmsSZB63ol-132" vertex="1">
          <mxGeometry y="66" width="425" height="20" as="geometry" />
        </mxCell>
        <mxCell id="tUeAErOg3bjmsSZB63ol-137" value="&lt;span style=&quot;font-size: 9px;&quot;&gt;+ createShift(String branchId, LocalDate shiftDate, ShiftType shiftType): Shift&lt;/span&gt;" style="text;html=1;align=left;verticalAlign=middle;resizable=0;points=[];autosize=1;strokeColor=none;fillColor=none;fontStyle=0;fontSize=9;" parent="tUeAErOg3bjmsSZB63ol-132" vertex="1">
          <mxGeometry y="86" width="425" height="20" as="geometry" />
        </mxCell>
        <mxCell id="uiuGp3_7cZ-gmYXxnTxB-17" value="&lt;span style=&quot;font-size: 9px;&quot;&gt;+ deleteShift(String branchId, LocalDate shiftDate, ShiftType shiftType): void&lt;/span&gt;" style="text;html=1;align=left;verticalAlign=middle;resizable=0;points=[];autosize=1;strokeColor=none;fillColor=none;fontStyle=0;fontSize=9;" parent="tUeAErOg3bjmsSZB63ol-132" vertex="1">
          <mxGeometry y="106" width="425" height="20" as="geometry" />
        </mxCell>
        <mxCell id="tUeAErOg3bjmsSZB63ol-27" value="+ createWeekShifts(String branchId,&amp;nbsp;LocalDate weekStart): void" style="text;html=1;align=left;verticalAlign=middle;resizable=0;points=[];autosize=1;strokeColor=none;fillColor=none;fontStyle=0;fontSize=9;" parent="tUeAErOg3bjmsSZB63ol-132" vertex="1">
          <mxGeometry y="126" width="425" height="20" as="geometry" />
        </mxCell>
        <mxCell id="tUeAErOg3bjmsSZB63ol-55" value="+ getWeekShifts(String branchId, LocalDate weekStart): List&amp;lt;Shift[]&amp;gt;" style="text;html=1;align=left;verticalAlign=middle;resizable=0;points=[];autosize=1;strokeColor=none;fillColor=none;fontStyle=0;fontSize=9;" parent="tUeAErOg3bjmsSZB63ol-132" vertex="1">
          <mxGeometry y="146" width="425" height="20" as="geometry" />
        </mxCell>
        <mxCell id="tUeAErOg3bjmsSZB63ol-53" value="+ setShiftNeededAmount(String branchId,&amp;nbsp;LocalDate shiftDate, ShiftType type, Role role, int amount): void" style="text;html=1;align=left;verticalAlign=middle;resizable=0;points=[];autosize=1;strokeColor=none;fillColor=none;fontStyle=0;fontSize=9;" parent="tUeAErOg3bjmsSZB63ol-132" vertex="1">
          <mxGeometry y="166" width="425" height="20" as="geometry" />
        </mxCell>
        <mxCell id="tUeAErOg3bjmsSZB63ol-54" value="+ requestShift(Employee employee, String branchId,&amp;nbsp;LocalDate shiftDate, ShiftType shiftType,&lt;br&gt;&amp;nbsp; &amp;nbsp; &amp;nbsp; &amp;nbsp; &amp;nbsp; &amp;nbsp; &amp;nbsp; &amp;nbsp; &amp;nbsp; &amp;nbsp; &amp;nbsp; &amp;nbsp; Role role): void" style="text;html=1;align=left;verticalAlign=middle;resizable=0;points=[];autosize=1;strokeColor=none;fillColor=none;fontStyle=0;fontSize=9;" parent="tUeAErOg3bjmsSZB63ol-132" vertex="1">
          <mxGeometry y="186" width="425" height="40" as="geometry" />
        </mxCell>
        <mxCell id="uiuGp3_7cZ-gmYXxnTxB-18" value="+ cancelShiftRequest(Employee employee, String branchid, LocalDate shiftDate, ShiftType shiftType,&lt;br&gt;&amp;nbsp; &amp;nbsp; &amp;nbsp; &amp;nbsp; &amp;nbsp; &amp;nbsp; &amp;nbsp; &amp;nbsp; &amp;nbsp; &amp;nbsp; &amp;nbsp; &amp;nbsp; &amp;nbsp;Role role): void" style="text;html=1;align=left;verticalAlign=middle;resizable=0;points=[];autosize=1;strokeColor=none;fillColor=none;fontStyle=0;fontSize=9;" parent="tUeAErOg3bjmsSZB63ol-132" vertex="1">
          <mxGeometry y="226" width="425" height="40" as="geometry" />
        </mxCell>
        <mxCell id="tUeAErOg3bjmsSZB63ol-102" value="+ setShiftEmployees(String branchId,&amp;nbsp;LocalDate shiftDate,&amp;nbsp;ShiftType shiftType,&lt;br&gt;&amp;nbsp; &amp;nbsp; &amp;nbsp; &amp;nbsp; &amp;nbsp; &amp;nbsp; &amp;nbsp; &amp;nbsp; &amp;nbsp; &amp;nbsp; &amp;nbsp; &amp;nbsp; String role,&amp;nbsp;List&amp;lt;Employee&amp;gt; employees): void" style="text;html=1;align=left;verticalAlign=middle;resizable=0;points=[];autosize=1;strokeColor=none;fillColor=none;fontStyle=0;fontSize=9;" parent="tUeAErOg3bjmsSZB63ol-132" vertex="1">
          <mxGeometry y="266" width="425" height="40" as="geometry" />
        </mxCell>
        <mxCell id="yrnM3i_oS5V_zNQIPLy5-70" value="+ getEmployeeShifts(Employee employee): List&amp;lt;Shift[]&amp;gt;" style="text;html=1;align=left;verticalAlign=middle;resizable=0;points=[];autosize=1;strokeColor=none;fillColor=none;fontStyle=0;fontSize=9;" parent="tUeAErOg3bjmsSZB63ol-132" vertex="1">
          <mxGeometry y="306" width="425" height="20" as="geometry" />
        </mxCell>
        <mxCell id="uiuGp3_7cZ-gmYXxnTxB-19" value="+ approveShift(String branchId, LocalDate shiftDate, ShiftType shiftType): void" style="text;html=1;align=left;verticalAlign=middle;resizable=0;points=[];autosize=1;strokeColor=none;fillColor=none;fontStyle=0;fontSize=9;" parent="tUeAErOg3bjmsSZB63ol-132" vertex="1">
          <mxGeometry y="326" width="425" height="20" as="geometry" />
        </mxCell>
        <mxCell id="uiuGp3_7cZ-gmYXxnTxB-20" value="+ applyCancelCard(String branchId, LocalDate shiftDate, ShiftType shiftType, String employeeId,&lt;br&gt;&amp;nbsp; &amp;nbsp; &amp;nbsp; &amp;nbsp; &amp;nbsp; &amp;nbsp; &amp;nbsp; &amp;nbsp; &amp;nbsp; &amp;nbsp; &amp;nbsp; String productId): void" style="text;html=1;align=left;verticalAlign=middle;resizable=0;points=[];autosize=1;strokeColor=none;fillColor=none;fontStyle=0;fontSize=9;" parent="tUeAErOg3bjmsSZB63ol-132" vertex="1">
          <mxGeometry y="346" width="425" height="40" as="geometry" />
        </mxCell>
        <mxCell id="uiuGp3_7cZ-gmYXxnTxB-21" value="+ reportShiftActivity(String branchId, LocalDate shiftDate, ShiftType shiftType, String employeeId,&lt;br&gt;&amp;nbsp; &amp;nbsp; &amp;nbsp; &amp;nbsp; &amp;nbsp; &amp;nbsp; &amp;nbsp; &amp;nbsp; &amp;nbsp; &amp;nbsp; &amp;nbsp; String activity): void" style="text;html=1;align=left;verticalAlign=middle;resizable=0;points=[];autosize=1;strokeColor=none;fillColor=none;fontStyle=0;fontSize=9;" parent="tUeAErOg3bjmsSZB63ol-132" vertex="1">
          <mxGeometry y="386" width="425" height="40" as="geometry" />
        </mxCell>
        <mxCell id="yrnM3i_oS5V_zNQIPLy5-64" value="# createBranch(String branchId): void" style="text;html=1;align=left;verticalAlign=middle;resizable=0;points=[];autosize=1;strokeColor=none;fillColor=none;fontStyle=0;fontSize=9;" parent="tUeAErOg3bjmsSZB63ol-132" vertex="1">
          <mxGeometry y="426" width="425" height="20" as="geometry" />
        </mxCell>
        <mxCell id="tUeAErOg3bjmsSZB63ol-195" value="(using ShiftsDAO)" style="edgeStyle=orthogonalEdgeStyle;rounded=0;orthogonalLoop=1;jettySize=auto;html=1;startArrow=none;startFill=0;endArrow=diamondThin;endFill=1;fontSize=7;entryX=1.002;entryY=0.633;entryDx=0;entryDy=0;entryPerimeter=0;" parent="WIyWlLk6GJQsqaUBKTNV-1" source="tUeAErOg3bjmsSZB63ol-138" target="tUeAErOg3bjmsSZB63ol-136" edge="1">
          <mxGeometry x="-0.6438" y="-20" relative="1" as="geometry">
            <Array as="points">
              <mxPoint x="-370" y="2020" />
              <mxPoint x="-370" y="1890" />
              <mxPoint x="-379" y="1890" />
            </Array>
            <mxPoint as="offset" />
            <mxPoint x="-370" y="1870" as="targetPoint" />
          </mxGeometry>
        </mxCell>
        <mxCell id="yrnM3i_oS5V_zNQIPLy5-109" value="characterized by" style="edgeStyle=orthogonalEdgeStyle;rounded=0;orthogonalLoop=1;jettySize=auto;html=1;entryX=0.5;entryY=1;entryDx=0;entryDy=0;fontSize=9;endArrow=classic;endFill=1;" parent="WIyWlLk6GJQsqaUBKTNV-1" source="tUeAErOg3bjmsSZB63ol-138" target="yrnM3i_oS5V_zNQIPLy5-105" edge="1">
          <mxGeometry relative="1" as="geometry">
            <Array as="points">
              <mxPoint x="-215" y="2000" />
              <mxPoint x="-181" y="2000" />
            </Array>
          </mxGeometry>
        </mxCell>
        <mxCell id="tUeAErOg3bjmsSZB63ol-138" value="Shift" style="swimlane;fontStyle=1;align=center;verticalAlign=top;childLayout=stackLayout;horizontal=1;startSize=30;horizontalStack=0;resizeParent=1;resizeLast=0;collapsible=1;marginBottom=0;rounded=0;shadow=0;strokeWidth=1;fontSize=9;" parent="WIyWlLk6GJQsqaUBKTNV-1" vertex="1">
          <mxGeometry x="-360" y="2008" width="290" height="302" as="geometry">
            <mxRectangle x="130" y="380" width="160" height="26" as="alternateBounds" />
          </mxGeometry>
        </mxCell>
        <mxCell id="bhEWnd2NRkioedVnW9Wu-198" value="- branchId: String" style="text;html=1;align=left;verticalAlign=middle;resizable=0;points=[];autosize=1;strokeColor=none;fillColor=none;fontSize=9;" parent="tUeAErOg3bjmsSZB63ol-138" vertex="1">
          <mxGeometry y="30" width="290" height="20" as="geometry" />
        </mxCell>
        <mxCell id="tUeAErOg3bjmsSZB63ol-139" value="- shiftDate: LocalDate" style="text;html=1;align=left;verticalAlign=middle;resizable=0;points=[];autosize=1;strokeColor=none;fillColor=none;fontSize=9;" parent="tUeAErOg3bjmsSZB63ol-138" vertex="1">
          <mxGeometry y="50" width="290" height="20" as="geometry" />
        </mxCell>
        <mxCell id="tUeAErOg3bjmsSZB63ol-140" value="- shiftType: ShiftType" style="text;html=1;align=left;verticalAlign=middle;resizable=0;points=[];autosize=1;strokeColor=none;fillColor=none;fontSize=9;" parent="tUeAErOg3bjmsSZB63ol-138" vertex="1">
          <mxGeometry y="70" width="290" height="20" as="geometry" />
        </mxCell>
        <mxCell id="yrnM3i_oS5V_zNQIPLy5-63" value="- isApproved: boolean" style="text;html=1;align=left;verticalAlign=middle;resizable=0;points=[];autosize=1;strokeColor=none;fillColor=none;fontSize=9;" parent="tUeAErOg3bjmsSZB63ol-138" vertex="1">
          <mxGeometry y="90" width="290" height="20" as="geometry" />
        </mxCell>
        <mxCell id="tUeAErOg3bjmsSZB63ol-166" value="- shiftEmployeesAmounts: Map&amp;lt;Role, Integer&amp;gt;" style="text;html=1;align=left;verticalAlign=middle;resizable=0;points=[];autosize=1;strokeColor=none;fillColor=none;fontSize=9;" parent="tUeAErOg3bjmsSZB63ol-138" vertex="1">
          <mxGeometry y="110" width="290" height="20" as="geometry" />
        </mxCell>
        <mxCell id="tUeAErOg3bjmsSZB63ol-141" value="- shiftRequests: Map&amp;lt;Role,List&amp;lt;Employee&amp;gt;&amp;gt;" style="text;html=1;align=left;verticalAlign=middle;resizable=0;points=[];autosize=1;strokeColor=none;fillColor=none;fontSize=9;" parent="tUeAErOg3bjmsSZB63ol-138" vertex="1">
          <mxGeometry y="130" width="290" height="20" as="geometry" />
        </mxCell>
        <mxCell id="tUeAErOg3bjmsSZB63ol-142" value="- shiftWorkers: Map&amp;lt;Role,List&amp;lt;Employee&amp;gt;&amp;gt;" style="text;html=1;align=left;verticalAlign=middle;resizable=0;points=[];autosize=1;strokeColor=none;fillColor=none;fontSize=9;" parent="tUeAErOg3bjmsSZB63ol-138" vertex="1">
          <mxGeometry y="150" width="290" height="20" as="geometry" />
        </mxCell>
        <mxCell id="yrnM3i_oS5V_zNQIPLy5-104" value="- cancelCardApplies: List&amp;lt;String&amp;gt;" style="text;html=1;align=left;verticalAlign=middle;resizable=0;points=[];autosize=1;strokeColor=none;fillColor=none;fontSize=9;" parent="tUeAErOg3bjmsSZB63ol-138" vertex="1">
          <mxGeometry y="170" width="290" height="20" as="geometry" />
        </mxCell>
        <mxCell id="PrzoaaxdOy5b0EUcsDEy-0" value="- shiftActivities: List&amp;lt;String&amp;gt;" style="text;html=1;align=left;verticalAlign=middle;resizable=0;points=[];autosize=1;strokeColor=none;fillColor=none;fontSize=9;" parent="tUeAErOg3bjmsSZB63ol-138" vertex="1">
          <mxGeometry y="190" width="290" height="20" as="geometry" />
        </mxCell>
        <mxCell id="tUeAErOg3bjmsSZB63ol-143" value="" style="line;html=1;strokeWidth=1;align=left;verticalAlign=middle;spacingTop=-1;spacingLeft=3;spacingRight=3;rotatable=0;labelPosition=right;points=[];portConstraint=eastwest;fontSize=9;" parent="tUeAErOg3bjmsSZB63ol-138" vertex="1">
          <mxGeometry y="210" width="290" height="8" as="geometry" />
        </mxCell>
        <mxCell id="bhEWnd2NRkioedVnW9Wu-116" value="+ addShiftWorker(role: Role, employee: Employee) void" style="text;html=1;align=left;verticalAlign=middle;resizable=0;points=[];autosize=1;strokeColor=none;fillColor=none;fontSize=9;" parent="tUeAErOg3bjmsSZB63ol-138" vertex="1">
          <mxGeometry y="218" width="290" height="20" as="geometry" />
        </mxCell>
        <mxCell id="bhEWnd2NRkioedVnW9Wu-118" value="+ addShiftRequest(role: Role, employee: Employee) void" style="text;html=1;align=left;verticalAlign=middle;resizable=0;points=[];autosize=1;strokeColor=none;fillColor=none;fontSize=9;" parent="tUeAErOg3bjmsSZB63ol-138" vertex="1">
          <mxGeometry y="238" width="290" height="20" as="geometry" />
        </mxCell>
        <mxCell id="uiuGp3_7cZ-gmYXxnTxB-30" value="+ approve(): void" style="text;html=1;align=left;verticalAlign=middle;resizable=0;points=[];autosize=1;strokeColor=none;fillColor=none;fontSize=9;" parent="tUeAErOg3bjmsSZB63ol-138" vertex="1">
          <mxGeometry y="258" width="290" height="20" as="geometry" />
        </mxCell>
        <mxCell id="bhEWnd2NRkioedVnW9Wu-120" value="+ reportActivity(reportingEmployee: String, activity: String): void" style="text;html=1;align=left;verticalAlign=middle;resizable=0;points=[];autosize=1;strokeColor=none;fillColor=none;fontSize=9;" parent="tUeAErOg3bjmsSZB63ol-138" vertex="1">
          <mxGeometry y="278" width="290" height="20" as="geometry" />
        </mxCell>
        <mxCell id="tUeAErOg3bjmsSZB63ol-146" value="&lt;b style=&quot;font-size: 9px;&quot;&gt;Utils&lt;/b&gt;" style="verticalAlign=top;align=center;spacingTop=8;spacingLeft=2;spacingRight=12;shape=cube;size=10;direction=south;fontStyle=4;html=1;fontSize=9;" parent="WIyWlLk6GJQsqaUBKTNV-1" vertex="1">
          <mxGeometry x="-825" y="2450" width="810" height="200" as="geometry" />
        </mxCell>
        <mxCell id="tUeAErOg3bjmsSZB63ol-147" value="DateUtils" style="swimlane;fontStyle=5;align=center;verticalAlign=top;childLayout=stackLayout;horizontal=1;startSize=30;horizontalStack=0;resizeParent=1;resizeLast=0;collapsible=1;marginBottom=0;rounded=0;shadow=0;strokeWidth=1;fontSize=9;" parent="WIyWlLk6GJQsqaUBKTNV-1" vertex="1">
          <mxGeometry x="-795" y="2475" width="290" height="158" as="geometry">
            <mxRectangle x="130" y="380" width="160" height="26" as="alternateBounds" />
          </mxGeometry>
        </mxCell>
        <mxCell id="yrnM3i_oS5V_zNQIPLy5-115" value="+ DATE_PATTERN: String" style="text;html=1;align=left;verticalAlign=middle;resizable=0;points=[];autosize=1;strokeColor=none;fillColor=none;fontStyle=4;fontSize=9;" parent="tUeAErOg3bjmsSZB63ol-147" vertex="1">
          <mxGeometry y="30" width="290" height="20" as="geometry" />
        </mxCell>
        <mxCell id="yrnM3i_oS5V_zNQIPLy5-116" value="+ DateFormat: DateTimeFormatter" style="text;html=1;align=left;verticalAlign=middle;resizable=0;points=[];autosize=1;strokeColor=none;fillColor=none;fontStyle=4;fontSize=9;" parent="tUeAErOg3bjmsSZB63ol-147" vertex="1">
          <mxGeometry y="50" width="290" height="20" as="geometry" />
        </mxCell>
        <mxCell id="tUeAErOg3bjmsSZB63ol-152" value="" style="line;html=1;strokeWidth=1;align=left;verticalAlign=middle;spacingTop=-1;spacingLeft=3;spacingRight=3;rotatable=0;labelPosition=right;points=[];portConstraint=eastwest;fontSize=9;" parent="tUeAErOg3bjmsSZB63ol-147" vertex="1">
          <mxGeometry y="70" width="290" height="8" as="geometry" />
        </mxCell>
        <mxCell id="tUeAErOg3bjmsSZB63ol-154" value="+ getWeekDays(LocalDate d): LocalDate[]" style="text;html=1;align=left;verticalAlign=middle;resizable=0;points=[];autosize=1;strokeColor=none;fillColor=none;fontStyle=4;fontSize=9;" parent="tUeAErOg3bjmsSZB63ol-147" vertex="1">
          <mxGeometry y="78" width="290" height="20" as="geometry" />
        </mxCell>
        <mxCell id="yrnM3i_oS5V_zNQIPLy5-113" value="+ getWeekNumber(LocalDate d): int" style="text;html=1;align=left;verticalAlign=middle;resizable=0;points=[];autosize=1;strokeColor=none;fillColor=none;fontStyle=4;fontSize=9;" parent="tUeAErOg3bjmsSZB63ol-147" vertex="1">
          <mxGeometry y="98" width="290" height="20" as="geometry" />
        </mxCell>
        <mxCell id="yrnM3i_oS5V_zNQIPLy5-114" value="+ parse(String dateString): LocalDate" style="text;html=1;align=left;verticalAlign=middle;resizable=0;points=[];autosize=1;strokeColor=none;fillColor=none;fontStyle=4;fontSize=9;" parent="tUeAErOg3bjmsSZB63ol-147" vertex="1">
          <mxGeometry y="118" width="290" height="20" as="geometry" />
        </mxCell>
        <mxCell id="yrnM3i_oS5V_zNQIPLy5-117" value="+ validDate(String dateInput): boolean" style="text;html=1;align=left;verticalAlign=middle;resizable=0;points=[];autosize=1;strokeColor=none;fillColor=none;fontStyle=4;fontSize=9;" parent="tUeAErOg3bjmsSZB63ol-147" vertex="1">
          <mxGeometry y="138" width="290" height="20" as="geometry" />
        </mxCell>
        <mxCell id="tUeAErOg3bjmsSZB63ol-155" value="JsonUtils" style="swimlane;fontStyle=5;align=center;verticalAlign=top;childLayout=stackLayout;horizontal=1;startSize=30;horizontalStack=0;resizeParent=1;resizeLast=0;collapsible=1;marginBottom=0;rounded=0;shadow=0;strokeWidth=1;fontSize=9;" parent="WIyWlLk6GJQsqaUBKTNV-1" vertex="1">
          <mxGeometry x="-375" y="2475" width="290" height="98" as="geometry">
            <mxRectangle x="130" y="380" width="160" height="26" as="alternateBounds" />
          </mxGeometry>
        </mxCell>
        <mxCell id="tUeAErOg3bjmsSZB63ol-156" value="" style="line;html=1;strokeWidth=1;align=left;verticalAlign=middle;spacingTop=-1;spacingLeft=3;spacingRight=3;rotatable=0;labelPosition=right;points=[];portConstraint=eastwest;fontSize=9;" parent="tUeAErOg3bjmsSZB63ol-155" vertex="1">
          <mxGeometry y="30" width="290" height="8" as="geometry" />
        </mxCell>
        <mxCell id="tUeAErOg3bjmsSZB63ol-158" value="+ &amp;lt;T&amp;gt; serialize(T object): String" style="text;html=1;align=left;verticalAlign=middle;resizable=0;points=[];autosize=1;strokeColor=none;fillColor=none;fontStyle=4;fontSize=9;" parent="tUeAErOg3bjmsSZB63ol-155" vertex="1">
          <mxGeometry y="38" width="290" height="20" as="geometry" />
        </mxCell>
        <mxCell id="yrnM3i_oS5V_zNQIPLy5-112" value="+ &amp;lt;T&amp;gt; deserialize(String json, Type typeOfT): T" style="text;html=1;align=left;verticalAlign=middle;resizable=0;points=[];autosize=1;strokeColor=none;fillColor=none;fontStyle=4;fontSize=9;" parent="tUeAErOg3bjmsSZB63ol-155" vertex="1">
          <mxGeometry y="58" width="290" height="20" as="geometry" />
        </mxCell>
        <mxCell id="tUeAErOg3bjmsSZB63ol-176" value="&lt;&lt;Enum&gt;&gt;&#xa;Role" style="swimlane;fontStyle=1;align=center;verticalAlign=top;childLayout=stackLayout;horizontal=1;startSize=40;horizontalStack=0;resizeParent=1;resizeLast=0;collapsible=1;marginBottom=0;rounded=0;shadow=0;strokeWidth=1;fontSize=9;" parent="WIyWlLk6GJQsqaUBKTNV-1" vertex="1">
          <mxGeometry x="-360" y="1785" width="100" height="205" as="geometry">
            <mxRectangle x="130" y="380" width="160" height="26" as="alternateBounds" />
          </mxGeometry>
        </mxCell>
        <mxCell id="tUeAErOg3bjmsSZB63ol-187" value="Cashier" style="text;html=1;align=left;verticalAlign=middle;resizable=0;points=[];autosize=1;strokeColor=none;fillColor=none;fontSize=9;" parent="tUeAErOg3bjmsSZB63ol-176" vertex="1">
          <mxGeometry y="40" width="100" height="20" as="geometry" />
        </mxCell>
        <mxCell id="tUeAErOg3bjmsSZB63ol-189" value="Storekeeper" style="text;html=1;align=left;verticalAlign=middle;resizable=0;points=[];autosize=1;strokeColor=none;fillColor=none;fontSize=9;" parent="tUeAErOg3bjmsSZB63ol-176" vertex="1">
          <mxGeometry y="60" width="100" height="20" as="geometry" />
        </mxCell>
        <mxCell id="tUeAErOg3bjmsSZB63ol-186" value="ShiftManager" style="text;html=1;align=left;verticalAlign=middle;resizable=0;points=[];autosize=1;strokeColor=none;fillColor=none;fontSize=9;" parent="tUeAErOg3bjmsSZB63ol-176" vertex="1">
          <mxGeometry y="80" width="100" height="20" as="geometry" />
        </mxCell>
        <mxCell id="yrnM3i_oS5V_zNQIPLy5-67" value="GeneralWorker" style="text;html=1;align=left;verticalAlign=middle;resizable=0;points=[];autosize=1;strokeColor=none;fillColor=none;fontSize=9;" parent="tUeAErOg3bjmsSZB63ol-176" vertex="1">
          <mxGeometry y="100" width="100" height="20" as="geometry" />
        </mxCell>
        <mxCell id="tUeAErOg3bjmsSZB63ol-193" value="SecurityGuard" style="text;html=1;align=left;verticalAlign=middle;resizable=0;points=[];autosize=1;strokeColor=none;fillColor=none;fontSize=9;" parent="tUeAErOg3bjmsSZB63ol-176" vertex="1">
          <mxGeometry y="120" width="100" height="20" as="geometry" />
        </mxCell>
        <mxCell id="tUeAErOg3bjmsSZB63ol-181" value="Steward" style="text;html=1;align=left;verticalAlign=middle;resizable=0;points=[];autosize=1;strokeColor=none;fillColor=none;fontSize=9;" parent="tUeAErOg3bjmsSZB63ol-176" vertex="1">
          <mxGeometry y="140" width="100" height="20" as="geometry" />
        </mxCell>
        <mxCell id="tUeAErOg3bjmsSZB63ol-192" value="Cleaner" style="text;html=1;align=left;verticalAlign=middle;resizable=0;points=[];autosize=1;strokeColor=none;fillColor=none;fontSize=9;" parent="tUeAErOg3bjmsSZB63ol-176" vertex="1">
          <mxGeometry y="160" width="100" height="20" as="geometry" />
        </mxCell>
        <mxCell id="yrnM3i_oS5V_zNQIPLy5-66" value="Driver" style="text;html=1;align=left;verticalAlign=middle;resizable=0;points=[];autosize=1;strokeColor=none;fillColor=none;fontSize=9;" parent="tUeAErOg3bjmsSZB63ol-176" vertex="1">
          <mxGeometry y="180" width="100" height="20" as="geometry" />
        </mxCell>
        <mxCell id="tUeAErOg3bjmsSZB63ol-18" value="(using UserDAO)" style="edgeStyle=orthogonalEdgeStyle;rounded=0;orthogonalLoop=1;jettySize=auto;html=1;startArrow=none;startFill=0;endArrow=diamondThin;endFill=1;entryX=0.5;entryY=1;entryDx=0;entryDy=0;fontSize=7;" parent="WIyWlLk6GJQsqaUBKTNV-1" source="TPDy2men3T0ADZxq4F-W-9" target="TPDy2men3T0ADZxq4F-W-21" edge="1">
          <mxGeometry x="-0.1111" y="5" relative="1" as="geometry">
            <Array as="points">
              <mxPoint x="-195" y="1590" />
              <mxPoint x="-195" y="1590" />
            </Array>
            <mxPoint x="-230" y="1540" as="targetPoint" />
            <mxPoint as="offset" />
          </mxGeometry>
        </mxCell>
        <mxCell id="yrnM3i_oS5V_zNQIPLy5-125" value="calls" style="edgeStyle=orthogonalEdgeStyle;rounded=0;orthogonalLoop=1;jettySize=auto;html=1;entryX=-0.001;entryY=0.141;entryDx=0;entryDy=0;entryPerimeter=0;fontSize=9;endArrow=classic;endFill=1;" parent="WIyWlLk6GJQsqaUBKTNV-1" source="yrnM3i_oS5V_zNQIPLy5-11" target="yrnM3i_oS5V_zNQIPLy5-23" edge="1">
          <mxGeometry x="-0.0042" relative="1" as="geometry">
            <mxPoint as="offset" />
          </mxGeometry>
        </mxCell>
        <mxCell id="yrnM3i_oS5V_zNQIPLy5-11" value="Main" style="swimlane;fontStyle=1;align=center;verticalAlign=top;childLayout=stackLayout;horizontal=1;startSize=26;horizontalStack=0;resizeParent=1;resizeParentMax=0;resizeLast=0;collapsible=1;marginBottom=0;fontSize=9;" parent="WIyWlLk6GJQsqaUBKTNV-1" vertex="1">
          <mxGeometry x="-689" y="-1113" width="143" height="60" as="geometry" />
        </mxCell>
        <mxCell id="yrnM3i_oS5V_zNQIPLy5-14" value="" style="line;strokeWidth=1;fillColor=none;align=left;verticalAlign=middle;spacingTop=-1;spacingLeft=3;spacingRight=3;rotatable=0;labelPosition=right;points=[];portConstraint=eastwest;fontSize=9;" parent="yrnM3i_oS5V_zNQIPLy5-11" vertex="1">
          <mxGeometry y="26" width="143" height="8" as="geometry" />
        </mxCell>
        <mxCell id="yrnM3i_oS5V_zNQIPLy5-15" value="+ static main(String[] args): void" style="text;strokeColor=none;fillColor=none;align=left;verticalAlign=top;spacingLeft=4;spacingRight=4;overflow=hidden;rotatable=0;points=[[0,0.5],[1,0.5]];portConstraint=eastwest;fontStyle=4;fontSize=9;" parent="yrnM3i_oS5V_zNQIPLy5-11" vertex="1">
          <mxGeometry y="34" width="143" height="26" as="geometry" />
        </mxCell>
        <mxCell id="yrnM3i_oS5V_zNQIPLy5-126" value="runs" style="edgeStyle=orthogonalEdgeStyle;rounded=0;orthogonalLoop=1;jettySize=auto;html=1;entryX=0.5;entryY=0;entryDx=0;entryDy=0;fontSize=9;endArrow=block;endFill=1;startArrow=none;startFill=0;" parent="WIyWlLk6GJQsqaUBKTNV-1" source="yrnM3i_oS5V_zNQIPLy5-16" target="yrnM3i_oS5V_zNQIPLy5-19" edge="1">
          <mxGeometry x="-0.0086" relative="1" as="geometry">
            <Array as="points">
              <mxPoint x="-413" y="-990" />
              <mxPoint x="-413" y="-990" />
            </Array>
            <mxPoint as="offset" />
          </mxGeometry>
        </mxCell>
        <mxCell id="yrnM3i_oS5V_zNQIPLy5-16" value="MenuManager" style="swimlane;fontStyle=1;align=center;verticalAlign=top;childLayout=stackLayout;horizontal=1;startSize=26;horizontalStack=0;resizeParent=1;resizeParentMax=0;resizeLast=0;collapsible=1;marginBottom=0;fontSize=9;" parent="WIyWlLk6GJQsqaUBKTNV-1" vertex="1">
          <mxGeometry x="-486.5" y="-1113" width="143" height="112" as="geometry" />
        </mxCell>
        <mxCell id="yrnM3i_oS5V_zNQIPLy5-23" value="- finished: boolean" style="text;strokeColor=none;fillColor=none;align=left;verticalAlign=top;spacingLeft=4;spacingRight=4;overflow=hidden;rotatable=0;points=[[0,0.5],[1,0.5]];portConstraint=eastwest;fontStyle=4;fontSize=9;" parent="yrnM3i_oS5V_zNQIPLy5-16" vertex="1">
          <mxGeometry y="26" width="143" height="26" as="geometry" />
        </mxCell>
        <mxCell id="yrnM3i_oS5V_zNQIPLy5-17" value="" style="line;strokeWidth=1;fillColor=none;align=left;verticalAlign=middle;spacingTop=-1;spacingLeft=3;spacingRight=3;rotatable=0;labelPosition=right;points=[];portConstraint=eastwest;fontSize=9;" parent="yrnM3i_oS5V_zNQIPLy5-16" vertex="1">
          <mxGeometry y="52" width="143" height="8" as="geometry" />
        </mxCell>
        <mxCell id="yrnM3i_oS5V_zNQIPLy5-18" value="+ void run()" style="text;strokeColor=none;fillColor=none;align=left;verticalAlign=top;spacingLeft=4;spacingRight=4;overflow=hidden;rotatable=0;points=[[0,0.5],[1,0.5]];portConstraint=eastwest;fontStyle=0;fontSize=9;" parent="yrnM3i_oS5V_zNQIPLy5-16" vertex="1">
          <mxGeometry y="60" width="143" height="26" as="geometry" />
        </mxCell>
        <mxCell id="yrnM3i_oS5V_zNQIPLy5-24" value="+ void terminate()" style="text;strokeColor=none;fillColor=none;align=left;verticalAlign=top;spacingLeft=4;spacingRight=4;overflow=hidden;rotatable=0;points=[[0,0.5],[1,0.5]];portConstraint=eastwest;fontStyle=4;fontSize=9;" parent="yrnM3i_oS5V_zNQIPLy5-16" vertex="1">
          <mxGeometry y="86" width="143" height="26" as="geometry" />
        </mxCell>
        <mxCell id="yrnM3i_oS5V_zNQIPLy5-19" value="&lt;&lt;Interface&gt;&gt;&#xa;Menu" style="swimlane;fontStyle=1;align=center;verticalAlign=top;childLayout=stackLayout;horizontal=1;startSize=30;horizontalStack=0;resizeParent=1;resizeParentMax=0;resizeLast=0;collapsible=1;marginBottom=0;fontSize=9;" parent="WIyWlLk6GJQsqaUBKTNV-1" vertex="1">
          <mxGeometry x="-470.5" y="-970" width="115" height="90" as="geometry" />
        </mxCell>
        <mxCell id="yrnM3i_oS5V_zNQIPLy5-20" value="" style="line;strokeWidth=1;fillColor=none;align=left;verticalAlign=middle;spacingTop=-1;spacingLeft=3;spacingRight=3;rotatable=0;labelPosition=right;points=[];portConstraint=eastwest;fontSize=9;" parent="yrnM3i_oS5V_zNQIPLy5-19" vertex="1">
          <mxGeometry y="30" width="115" height="8" as="geometry" />
        </mxCell>
        <mxCell id="yrnM3i_oS5V_zNQIPLy5-21" value="+ Menu run()" style="text;strokeColor=none;fillColor=none;align=left;verticalAlign=top;spacingLeft=4;spacingRight=4;overflow=hidden;rotatable=0;points=[[0,0.5],[1,0.5]];portConstraint=eastwest;fontStyle=0;fontSize=9;" parent="yrnM3i_oS5V_zNQIPLy5-19" vertex="1">
          <mxGeometry y="38" width="115" height="26" as="geometry" />
        </mxCell>
        <mxCell id="yrnM3i_oS5V_zNQIPLy5-22" value="+ void printCommands()" style="text;strokeColor=none;fillColor=none;align=left;verticalAlign=top;spacingLeft=4;spacingRight=4;overflow=hidden;rotatable=0;points=[[0,0.5],[1,0.5]];portConstraint=eastwest;fontStyle=0;fontSize=9;" parent="yrnM3i_oS5V_zNQIPLy5-19" vertex="1">
          <mxGeometry y="64" width="115" height="26" as="geometry" />
        </mxCell>
        <mxCell id="yrnM3i_oS5V_zNQIPLy5-120" style="edgeStyle=orthogonalEdgeStyle;rounded=0;orthogonalLoop=1;jettySize=auto;html=1;fontSize=9;endArrow=none;endFill=0;entryX=0.482;entryY=1.006;entryDx=0;entryDy=0;entryPerimeter=0;dashed=1;" parent="WIyWlLk6GJQsqaUBKTNV-1" source="yrnM3i_oS5V_zNQIPLy5-25" target="yrnM3i_oS5V_zNQIPLy5-22" edge="1">
          <mxGeometry relative="1" as="geometry">
            <mxPoint x="-410" y="-880" as="targetPoint" />
            <Array as="points">
              <mxPoint x="-615" y="-860" />
              <mxPoint x="-415" y="-860" />
            </Array>
          </mxGeometry>
        </mxCell>
        <mxCell id="yrnM3i_oS5V_zNQIPLy5-122" value="" style="edgeStyle=orthogonalEdgeStyle;rounded=0;orthogonalLoop=1;jettySize=auto;html=1;entryX=0.5;entryY=0;entryDx=0;entryDy=0;fontSize=9;endArrow=none;endFill=0;startArrow=diamondThin;startFill=0;" parent="WIyWlLk6GJQsqaUBKTNV-1" source="yrnM3i_oS5V_zNQIPLy5-25" target="yrnM3i_oS5V_zNQIPLy5-35" edge="1">
          <mxGeometry relative="1" as="geometry">
            <Array as="points">
              <mxPoint x="-640" y="-810" />
              <mxPoint x="-640" y="-810" />
            </Array>
          </mxGeometry>
        </mxCell>
        <mxCell id="bhEWnd2NRkioedVnW9Wu-171" value="connection to&lt;br style=&quot;font-size: 6px;&quot;&gt;Transport Module UI" style="edgeStyle=orthogonalEdgeStyle;rounded=0;orthogonalLoop=1;jettySize=auto;html=1;entryX=0;entryY=0.907;entryDx=0;entryDy=0;entryPerimeter=0;fontSize=6;startArrow=classic;startFill=1;" parent="WIyWlLk6GJQsqaUBKTNV-1" source="yrnM3i_oS5V_zNQIPLy5-25" target="yrnM3i_oS5V_zNQIPLy5-57" edge="1">
          <mxGeometry relative="1" as="geometry">
            <Array as="points">
              <mxPoint x="-730" y="-840" />
            </Array>
          </mxGeometry>
        </mxCell>
        <mxCell id="yrnM3i_oS5V_zNQIPLy5-25" value="LoginMenu" style="swimlane;fontStyle=1;align=center;verticalAlign=top;childLayout=stackLayout;horizontal=1;startSize=20;horizontalStack=0;resizeParent=1;resizeParentMax=0;resizeLast=0;collapsible=1;marginBottom=0;fontSize=9;" parent="WIyWlLk6GJQsqaUBKTNV-1" vertex="1">
          <mxGeometry x="-702.5" y="-855" width="170" height="28" as="geometry" />
        </mxCell>
        <mxCell id="yrnM3i_oS5V_zNQIPLy5-26" value="" style="line;strokeWidth=1;fillColor=none;align=left;verticalAlign=middle;spacingTop=-1;spacingLeft=3;spacingRight=3;rotatable=0;labelPosition=right;points=[];portConstraint=eastwest;fontSize=9;" parent="yrnM3i_oS5V_zNQIPLy5-25" vertex="1">
          <mxGeometry y="20" width="170" height="8" as="geometry" />
        </mxCell>
        <mxCell id="yrnM3i_oS5V_zNQIPLy5-123" value="" style="edgeStyle=orthogonalEdgeStyle;rounded=0;orthogonalLoop=1;jettySize=auto;html=1;entryX=0.5;entryY=0;entryDx=0;entryDy=0;fontSize=9;endArrow=none;endFill=0;startArrow=diamondThin;startFill=0;" parent="WIyWlLk6GJQsqaUBKTNV-1" source="yrnM3i_oS5V_zNQIPLy5-29" target="yrnM3i_oS5V_zNQIPLy5-37" edge="1">
          <mxGeometry relative="1" as="geometry" />
        </mxCell>
        <mxCell id="yrnM3i_oS5V_zNQIPLy5-29" value="EmployeeMenu" style="swimlane;fontStyle=1;align=center;verticalAlign=top;childLayout=stackLayout;horizontal=1;startSize=20;horizontalStack=0;resizeParent=1;resizeParentMax=0;resizeLast=0;collapsible=1;marginBottom=0;fontSize=9;" parent="WIyWlLk6GJQsqaUBKTNV-1" vertex="1">
          <mxGeometry x="-472.5" y="-855" width="115" height="28" as="geometry" />
        </mxCell>
        <mxCell id="yrnM3i_oS5V_zNQIPLy5-30" value="" style="line;strokeWidth=1;fillColor=none;align=left;verticalAlign=middle;spacingTop=-1;spacingLeft=3;spacingRight=3;rotatable=0;labelPosition=right;points=[];portConstraint=eastwest;fontSize=9;" parent="yrnM3i_oS5V_zNQIPLy5-29" vertex="1">
          <mxGeometry y="20" width="115" height="8" as="geometry" />
        </mxCell>
        <mxCell id="yrnM3i_oS5V_zNQIPLy5-119" style="edgeStyle=orthogonalEdgeStyle;rounded=0;orthogonalLoop=1;jettySize=auto;html=1;fontSize=9;endArrow=none;endFill=0;dashed=1;" parent="WIyWlLk6GJQsqaUBKTNV-1" source="yrnM3i_oS5V_zNQIPLy5-33" edge="1">
          <mxGeometry relative="1" as="geometry">
            <Array as="points">
              <mxPoint x="-211" y="-860" />
              <mxPoint x="-415" y="-860" />
            </Array>
            <mxPoint x="-410" y="-860" as="targetPoint" />
          </mxGeometry>
        </mxCell>
        <mxCell id="yrnM3i_oS5V_zNQIPLy5-124" value="" style="edgeStyle=orthogonalEdgeStyle;rounded=0;orthogonalLoop=1;jettySize=auto;html=1;entryX=0.5;entryY=0;entryDx=0;entryDy=0;fontSize=9;endArrow=none;endFill=0;startArrow=diamondThin;startFill=0;" parent="WIyWlLk6GJQsqaUBKTNV-1" source="yrnM3i_oS5V_zNQIPLy5-33" target="yrnM3i_oS5V_zNQIPLy5-39" edge="1">
          <mxGeometry relative="1" as="geometry">
            <Array as="points">
              <mxPoint x="-170" y="-810" />
              <mxPoint x="-170" y="-810" />
            </Array>
          </mxGeometry>
        </mxCell>
        <mxCell id="yrnM3i_oS5V_zNQIPLy5-33" value="HRManagerMenu" style="swimlane;fontStyle=1;align=center;verticalAlign=top;childLayout=stackLayout;horizontal=1;startSize=20;horizontalStack=0;resizeParent=1;resizeParentMax=0;resizeLast=0;collapsible=1;marginBottom=0;fontSize=9;" parent="WIyWlLk6GJQsqaUBKTNV-1" vertex="1">
          <mxGeometry x="-272.5" y="-855" width="122.5" height="28" as="geometry" />
        </mxCell>
        <mxCell id="yrnM3i_oS5V_zNQIPLy5-34" value="" style="line;strokeWidth=1;fillColor=none;align=left;verticalAlign=middle;spacingTop=-1;spacingLeft=3;spacingRight=3;rotatable=0;labelPosition=right;points=[];portConstraint=eastwest;fontSize=9;" parent="yrnM3i_oS5V_zNQIPLy5-33" vertex="1">
          <mxGeometry y="20" width="122.5" height="8" as="geometry" />
        </mxCell>
        <mxCell id="9HDMn0SE0wKp89hlg1Oz-0" style="edgeStyle=orthogonalEdgeStyle;rounded=0;orthogonalLoop=1;jettySize=auto;html=1;endArrow=none;endFill=0;startArrow=diamondThin;startFill=0;" parent="WIyWlLk6GJQsqaUBKTNV-1" source="yrnM3i_oS5V_zNQIPLy5-35" edge="1">
          <mxGeometry relative="1" as="geometry">
            <mxPoint x="-412" y="-560" as="targetPoint" />
            <Array as="points">
              <mxPoint x="-615" y="-630" />
              <mxPoint x="-412" y="-630" />
              <mxPoint x="-412" y="-560" />
            </Array>
          </mxGeometry>
        </mxCell>
        <mxCell id="yrnM3i_oS5V_zNQIPLy5-35" value="LoginMenuVM" style="swimlane;fontStyle=1;align=center;verticalAlign=top;childLayout=stackLayout;horizontal=1;startSize=20;horizontalStack=0;resizeParent=1;resizeParentMax=0;resizeLast=0;collapsible=1;marginBottom=0;fontSize=9;" parent="WIyWlLk6GJQsqaUBKTNV-1" vertex="1">
          <mxGeometry x="-760" y="-782" width="220" height="73" as="geometry" />
        </mxCell>
        <mxCell id="yrnM3i_oS5V_zNQIPLy5-36" value="" style="line;strokeWidth=1;fillColor=none;align=left;verticalAlign=middle;spacingTop=-1;spacingLeft=3;spacingRight=3;rotatable=0;labelPosition=right;points=[];portConstraint=eastwest;fontSize=9;" parent="yrnM3i_oS5V_zNQIPLy5-35" vertex="1">
          <mxGeometry y="20" width="220" height="8" as="geometry" />
        </mxCell>
        <mxCell id="yrnM3i_oS5V_zNQIPLy5-50" value="+ login(username: String, password: String): String" style="text;strokeColor=none;fillColor=none;align=left;verticalAlign=top;spacingLeft=4;spacingRight=4;overflow=hidden;rotatable=0;points=[[0,0.5],[1,0.5]];portConstraint=eastwest;fontStyle=0;fontSize=8;" parent="yrnM3i_oS5V_zNQIPLy5-35" vertex="1">
          <mxGeometry y="28" width="220" height="15" as="geometry" />
        </mxCell>
        <mxCell id="yrnM3i_oS5V_zNQIPLy5-51" value="+ isLoggedIn(): boolean" style="text;strokeColor=none;fillColor=none;align=left;verticalAlign=top;spacingLeft=4;spacingRight=4;overflow=hidden;rotatable=0;points=[[0,0.5],[1,0.5]];portConstraint=eastwest;fontStyle=0;fontSize=8;" parent="yrnM3i_oS5V_zNQIPLy5-35" vertex="1">
          <mxGeometry y="43" width="220" height="15" as="geometry" />
        </mxCell>
        <mxCell id="yrnM3i_oS5V_zNQIPLy5-52" value="+ getUserAuthorizations(): List&lt;String&gt;" style="text;strokeColor=none;fillColor=none;align=left;verticalAlign=top;spacingLeft=4;spacingRight=4;overflow=hidden;rotatable=0;points=[[0,0.5],[1,0.5]];portConstraint=eastwest;fontStyle=0;fontSize=8;" parent="yrnM3i_oS5V_zNQIPLy5-35" vertex="1">
          <mxGeometry y="58" width="220" height="15" as="geometry" />
        </mxCell>
        <mxCell id="yrnM3i_oS5V_zNQIPLy5-37" value="EmployeeMenuVM" style="swimlane;fontStyle=1;align=center;verticalAlign=top;childLayout=stackLayout;horizontal=1;startSize=20;horizontalStack=0;resizeParent=1;resizeParentMax=0;resizeLast=0;collapsible=1;marginBottom=0;fontSize=9;" parent="WIyWlLk6GJQsqaUBKTNV-1" vertex="1">
          <mxGeometry x="-525" y="-788" width="220" height="148" as="geometry" />
        </mxCell>
        <mxCell id="yrnM3i_oS5V_zNQIPLy5-38" value="" style="line;strokeWidth=1;fillColor=none;align=left;verticalAlign=middle;spacingTop=-1;spacingLeft=3;spacingRight=3;rotatable=0;labelPosition=right;points=[];portConstraint=eastwest;fontSize=9;" parent="yrnM3i_oS5V_zNQIPLy5-37" vertex="1">
          <mxGeometry y="20" width="220" height="8" as="geometry" />
        </mxCell>
        <mxCell id="yrnM3i_oS5V_zNQIPLy5-44" value="+ registerShift(): String" style="text;strokeColor=none;fillColor=none;align=left;verticalAlign=top;spacingLeft=4;spacingRight=4;overflow=hidden;rotatable=0;points=[[0,0.5],[1,0.5]];portConstraint=eastwest;fontStyle=0;fontSize=8;" parent="yrnM3i_oS5V_zNQIPLy5-37" vertex="1">
          <mxGeometry y="28" width="220" height="15" as="geometry" />
        </mxCell>
        <mxCell id="yrnM3i_oS5V_zNQIPLy5-45" value="+ logout(): String" style="text;strokeColor=none;fillColor=none;align=left;verticalAlign=top;spacingLeft=4;spacingRight=4;overflow=hidden;rotatable=0;points=[[0,0.5],[1,0.5]];portConstraint=eastwest;fontStyle=0;fontSize=8;" parent="yrnM3i_oS5V_zNQIPLy5-37" vertex="1">
          <mxGeometry y="43" width="220" height="15" as="geometry" />
        </mxCell>
        <mxCell id="bhEWnd2NRkioedVnW9Wu-149" value="+ requestShift(branchId: String, shiftDate, ...): String" style="text;strokeColor=none;fillColor=none;align=left;verticalAlign=top;spacingLeft=4;spacingRight=4;overflow=hidden;rotatable=0;points=[[0,0.5],[1,0.5]];portConstraint=eastwest;fontStyle=0;fontSize=8;" parent="yrnM3i_oS5V_zNQIPLy5-37" vertex="1">
          <mxGeometry y="58" width="220" height="15" as="geometry" />
        </mxCell>
        <mxCell id="uiuGp3_7cZ-gmYXxnTxB-1" value="+ getNextWeekShifts(branchId: String): String" style="text;strokeColor=none;fillColor=none;align=left;verticalAlign=top;spacingLeft=4;spacingRight=4;overflow=hidden;rotatable=0;points=[[0,0.5],[1,0.5]];portConstraint=eastwest;fontStyle=0;fontSize=8;" parent="yrnM3i_oS5V_zNQIPLy5-37" vertex="1">
          <mxGeometry y="73" width="220" height="15" as="geometry" />
        </mxCell>
        <mxCell id="bhEWnd2NRkioedVnW9Wu-151" value="+ getWeekShifts(branchId: String, weekStart): String" style="text;strokeColor=none;fillColor=none;align=left;verticalAlign=top;spacingLeft=4;spacingRight=4;overflow=hidden;rotatable=0;points=[[0,0.5],[1,0.5]];portConstraint=eastwest;fontStyle=0;fontSize=8;" parent="yrnM3i_oS5V_zNQIPLy5-37" vertex="1">
          <mxGeometry y="88" width="220" height="15" as="geometry" />
        </mxCell>
        <mxCell id="bhEWnd2NRkioedVnW9Wu-148" value="+ applyCancelCard(branchId: String, ...): String" style="text;strokeColor=none;fillColor=none;align=left;verticalAlign=top;spacingLeft=4;spacingRight=4;overflow=hidden;rotatable=0;points=[[0,0.5],[1,0.5]];portConstraint=eastwest;fontStyle=0;fontSize=8;" parent="yrnM3i_oS5V_zNQIPLy5-37" vertex="1">
          <mxGeometry y="103" width="220" height="15" as="geometry" />
        </mxCell>
        <mxCell id="bhEWnd2NRkioedVnW9Wu-150" value="+ reportShiftActivity(branchId: String, shiftDate, ....): String" style="text;strokeColor=none;fillColor=none;align=left;verticalAlign=top;spacingLeft=4;spacingRight=4;overflow=hidden;rotatable=0;points=[[0,0.5],[1,0.5]];portConstraint=eastwest;fontStyle=0;fontSize=8;" parent="yrnM3i_oS5V_zNQIPLy5-37" vertex="1">
          <mxGeometry y="118" width="220" height="15" as="geometry" />
        </mxCell>
        <mxCell id="bhEWnd2NRkioedVnW9Wu-152" value="+ getMyShifts(): String" style="text;strokeColor=none;fillColor=none;align=left;verticalAlign=top;spacingLeft=4;spacingRight=4;overflow=hidden;rotatable=0;points=[[0,0.5],[1,0.5]];portConstraint=eastwest;fontStyle=0;fontSize=8;" parent="yrnM3i_oS5V_zNQIPLy5-37" vertex="1">
          <mxGeometry y="133" width="220" height="15" as="geometry" />
        </mxCell>
        <mxCell id="9HDMn0SE0wKp89hlg1Oz-1" style="edgeStyle=orthogonalEdgeStyle;rounded=0;orthogonalLoop=1;jettySize=auto;html=1;endArrow=none;endFill=0;startArrow=diamondThin;startFill=0;entryX=0;entryY=1;entryDx=0;entryDy=0;" parent="WIyWlLk6GJQsqaUBKTNV-1" source="yrnM3i_oS5V_zNQIPLy5-39" target="bhEWnd2NRkioedVnW9Wu-11" edge="1">
          <mxGeometry relative="1" as="geometry">
            <Array as="points">
              <mxPoint x="-211" y="-630" />
              <mxPoint x="-413" y="-630" />
            </Array>
            <mxPoint x="-350" y="-560" as="targetPoint" />
          </mxGeometry>
        </mxCell>
        <mxCell id="yrnM3i_oS5V_zNQIPLy5-39" value="HRManagerMenuVM" style="swimlane;fontStyle=1;align=center;verticalAlign=top;childLayout=stackLayout;horizontal=1;startSize=20;horizontalStack=0;resizeParent=1;resizeParentMax=0;resizeLast=0;collapsible=1;marginBottom=0;fontSize=9;" parent="WIyWlLk6GJQsqaUBKTNV-1" vertex="1">
          <mxGeometry x="-290" y="-788" width="240" height="148" as="geometry" />
        </mxCell>
        <mxCell id="yrnM3i_oS5V_zNQIPLy5-40" value="" style="line;strokeWidth=1;fillColor=none;align=left;verticalAlign=middle;spacingTop=-1;spacingLeft=3;spacingRight=3;rotatable=0;labelPosition=right;points=[];portConstraint=eastwest;fontSize=9;" parent="yrnM3i_oS5V_zNQIPLy5-39" vertex="1">
          <mxGeometry y="20" width="240" height="8" as="geometry" />
        </mxCell>
        <mxCell id="yrnM3i_oS5V_zNQIPLy5-41" value="+ recruitEmployee(fullName: String, branchId: String, ...): String" style="text;strokeColor=none;fillColor=none;align=left;verticalAlign=top;spacingLeft=4;spacingRight=4;overflow=hidden;rotatable=0;points=[[0,0.5],[1,0.5]];portConstraint=eastwest;fontStyle=0;fontSize=8;" parent="yrnM3i_oS5V_zNQIPLy5-39" vertex="1">
          <mxGeometry y="28" width="240" height="15" as="geometry" />
        </mxCell>
        <mxCell id="yrnM3i_oS5V_zNQIPLy5-42" value="+ createUser(username: String, password: String): String" style="text;strokeColor=none;fillColor=none;align=left;verticalAlign=top;spacingLeft=4;spacingRight=4;overflow=hidden;rotatable=0;points=[[0,0.5],[1,0.5]];portConstraint=eastwest;fontStyle=0;fontSize=8;" parent="yrnM3i_oS5V_zNQIPLy5-39" vertex="1">
          <mxGeometry y="43" width="240" height="15" as="geometry" />
        </mxCell>
        <mxCell id="yrnM3i_oS5V_zNQIPLy5-43" value="+ logout(): String" style="text;strokeColor=none;fillColor=none;align=left;verticalAlign=top;spacingLeft=4;spacingRight=4;overflow=hidden;rotatable=0;points=[[0,0.5],[1,0.5]];portConstraint=eastwest;fontStyle=0;fontSize=8;" parent="yrnM3i_oS5V_zNQIPLy5-39" vertex="1">
          <mxGeometry y="58" width="240" height="15" as="geometry" />
        </mxCell>
        <mxCell id="uiuGp3_7cZ-gmYXxnTxB-0" value="+ createNextWeekShifts(branchId: String): String" style="text;strokeColor=none;fillColor=none;align=left;verticalAlign=top;spacingLeft=4;spacingRight=4;overflow=hidden;rotatable=0;points=[[0,0.5],[1,0.5]];portConstraint=eastwest;fontStyle=0;fontSize=8;" parent="yrnM3i_oS5V_zNQIPLy5-39" vertex="1">
          <mxGeometry y="73" width="240" height="15" as="geometry" />
        </mxCell>
        <mxCell id="bhEWnd2NRkioedVnW9Wu-155" value="+ createWeekShifts(branchId: String, weekStart): String" style="text;strokeColor=none;fillColor=none;align=left;verticalAlign=top;spacingLeft=4;spacingRight=4;overflow=hidden;rotatable=0;points=[[0,0.5],[1,0.5]];portConstraint=eastwest;fontStyle=0;fontSize=8;" parent="yrnM3i_oS5V_zNQIPLy5-39" vertex="1">
          <mxGeometry y="88" width="240" height="15" as="geometry" />
        </mxCell>
        <mxCell id="bhEWnd2NRkioedVnW9Wu-154" value="+ getNextWeekShiftRequests(branchId: String): String" style="text;strokeColor=none;fillColor=none;align=left;verticalAlign=top;spacingLeft=4;spacingRight=4;overflow=hidden;rotatable=0;points=[[0,0.5],[1,0.5]];portConstraint=eastwest;fontStyle=0;fontSize=8;" parent="yrnM3i_oS5V_zNQIPLy5-39" vertex="1">
          <mxGeometry y="103" width="240" height="15" as="geometry" />
        </mxCell>
        <mxCell id="bhEWnd2NRkioedVnW9Wu-153" value="+ getWeekShiftRequests(branchId: String, weekStart): String" style="text;strokeColor=none;fillColor=none;align=left;verticalAlign=top;spacingLeft=4;spacingRight=4;overflow=hidden;rotatable=0;points=[[0,0.5],[1,0.5]];portConstraint=eastwest;fontStyle=0;fontSize=8;" parent="yrnM3i_oS5V_zNQIPLy5-39" vertex="1">
          <mxGeometry y="118" width="240" height="15" as="geometry" />
        </mxCell>
        <mxCell id="bhEWnd2NRkioedVnW9Wu-158" value="+ approveShift(branchId: String, shiftDate, shiftType): String" style="text;strokeColor=none;fillColor=none;align=left;verticalAlign=top;spacingLeft=4;spacingRight=4;overflow=hidden;rotatable=0;points=[[0,0.5],[1,0.5]];portConstraint=eastwest;fontStyle=0;fontSize=8;" parent="yrnM3i_oS5V_zNQIPLy5-39" vertex="1">
          <mxGeometry y="133" width="240" height="15" as="geometry" />
        </mxCell>
        <mxCell id="yrnM3i_oS5V_zNQIPLy5-105" value="&lt;&lt;Enum&gt;&gt;&#xa;ShiftType" style="swimlane;fontStyle=1;align=center;verticalAlign=top;childLayout=stackLayout;horizontal=1;startSize=40;horizontalStack=0;resizeParent=1;resizeLast=0;collapsible=1;marginBottom=0;rounded=0;shadow=0;strokeWidth=1;fontSize=9;" parent="WIyWlLk6GJQsqaUBKTNV-1" vertex="1">
          <mxGeometry x="-221" y="1880" width="80" height="90" as="geometry">
            <mxRectangle x="130" y="380" width="160" height="26" as="alternateBounds" />
          </mxGeometry>
        </mxCell>
        <mxCell id="yrnM3i_oS5V_zNQIPLy5-106" value="Morning" style="text;html=1;align=middle;verticalAlign=middle;resizable=0;points=[];autosize=1;strokeColor=none;fillColor=none;imageAlign=left;fontSize=9;" parent="yrnM3i_oS5V_zNQIPLy5-105" vertex="1">
          <mxGeometry y="40" width="80" height="20" as="geometry" />
        </mxCell>
        <mxCell id="yrnM3i_oS5V_zNQIPLy5-107" value="Evening" style="text;html=1;align=middle;verticalAlign=middle;resizable=0;points=[];autosize=1;strokeColor=none;fillColor=none;fontSize=9;" parent="yrnM3i_oS5V_zNQIPLy5-105" vertex="1">
          <mxGeometry y="60" width="80" height="20" as="geometry" />
        </mxCell>
        <mxCell id="yrnM3i_oS5V_zNQIPLy5-108" value="" style="line;html=1;strokeWidth=1;align=left;verticalAlign=middle;spacingTop=-1;spacingLeft=3;spacingRight=3;rotatable=0;labelPosition=right;points=[];portConstraint=eastwest;fontSize=9;" parent="yrnM3i_oS5V_zNQIPLy5-105" vertex="1">
          <mxGeometry y="80" width="80" height="8" as="geometry" />
        </mxCell>
        <mxCell id="yrnM3i_oS5V_zNQIPLy5-128" value="" style="edgeStyle=orthogonalEdgeStyle;rounded=0;orthogonalLoop=1;jettySize=auto;html=1;fontSize=9;endArrow=none;endFill=0;startArrow=diamondThin;startFill=0;" parent="WIyWlLk6GJQsqaUBKTNV-1" source="yrnM3i_oS5V_zNQIPLy5-37" edge="1">
          <mxGeometry x="0.3231" relative="1" as="geometry">
            <Array as="points">
              <mxPoint x="-413" y="-690" />
              <mxPoint x="-413" y="-690" />
            </Array>
            <mxPoint as="offset" />
            <mxPoint x="-413" y="-560" as="targetPoint" />
          </mxGeometry>
        </mxCell>
        <mxCell id="yrnM3i_oS5V_zNQIPLy5-118" value="implements" style="edgeStyle=orthogonalEdgeStyle;rounded=0;orthogonalLoop=1;jettySize=auto;html=1;fontSize=7;endArrow=block;endFill=0;entryX=0.483;entryY=1.004;entryDx=0;entryDy=0;entryPerimeter=0;dashed=1;" parent="WIyWlLk6GJQsqaUBKTNV-1" source="yrnM3i_oS5V_zNQIPLy5-29" target="yrnM3i_oS5V_zNQIPLy5-22" edge="1">
          <mxGeometry relative="1" as="geometry">
            <mxPoint x="-415" y="-878" as="targetPoint" />
            <Array as="points">
              <mxPoint x="-415" y="-870" />
            </Array>
          </mxGeometry>
        </mxCell>
        <mxCell id="bhEWnd2NRkioedVnW9Wu-2" value="1..*" style="text;html=1;strokeColor=none;fillColor=none;align=center;verticalAlign=middle;whiteSpace=wrap;rounded=0;fontSize=8;" parent="WIyWlLk6GJQsqaUBKTNV-1" vertex="1">
          <mxGeometry x="-409" y="-980" width="10" height="10" as="geometry" />
        </mxCell>
        <mxCell id="bhEWnd2NRkioedVnW9Wu-3" value="1" style="text;html=1;strokeColor=none;fillColor=none;align=center;verticalAlign=middle;whiteSpace=wrap;rounded=0;fontSize=8;" parent="WIyWlLk6GJQsqaUBKTNV-1" vertex="1">
          <mxGeometry x="-412" y="-1001" width="10" height="10" as="geometry" />
        </mxCell>
        <mxCell id="bhEWnd2NRkioedVnW9Wu-4" value="1" style="text;html=1;strokeColor=none;fillColor=none;align=center;verticalAlign=middle;whiteSpace=wrap;rounded=0;fontSize=8;" parent="WIyWlLk6GJQsqaUBKTNV-1" vertex="1">
          <mxGeometry x="-636.5" y="-823" width="10" height="10" as="geometry" />
        </mxCell>
        <mxCell id="bhEWnd2NRkioedVnW9Wu-5" value="1" style="text;html=1;strokeColor=none;fillColor=none;align=center;verticalAlign=middle;whiteSpace=wrap;rounded=0;fontSize=8;" parent="WIyWlLk6GJQsqaUBKTNV-1" vertex="1">
          <mxGeometry x="-360" y="-960" width="10" height="10" as="geometry" />
        </mxCell>
        <mxCell id="bhEWnd2NRkioedVnW9Wu-30" value="creates" style="edgeStyle=orthogonalEdgeStyle;rounded=0;orthogonalLoop=1;jettySize=auto;html=1;entryX=0.25;entryY=0;entryDx=0;entryDy=0;" parent="WIyWlLk6GJQsqaUBKTNV-1" edge="1">
          <mxGeometry relative="1" as="geometry">
            <mxPoint x="-673" y="138" as="sourcePoint" />
            <mxPoint x="-280.0000000000002" y="250" as="targetPoint" />
            <Array as="points">
              <mxPoint x="-673" y="230" />
              <mxPoint x="-280" y="230" />
            </Array>
          </mxGeometry>
        </mxCell>
        <mxCell id="bhEWnd2NRkioedVnW9Wu-6" value="1" style="text;html=1;strokeColor=none;fillColor=none;align=center;verticalAlign=middle;whiteSpace=wrap;rounded=0;fontSize=8;" parent="WIyWlLk6GJQsqaUBKTNV-1" vertex="1">
          <mxGeometry x="-636.5" y="-798" width="10" height="10" as="geometry" />
        </mxCell>
        <mxCell id="bhEWnd2NRkioedVnW9Wu-7" value="1" style="text;html=1;strokeColor=none;fillColor=none;align=center;verticalAlign=middle;whiteSpace=wrap;rounded=0;fontSize=8;" parent="WIyWlLk6GJQsqaUBKTNV-1" vertex="1">
          <mxGeometry x="-413" y="-822" width="10" height="10" as="geometry" />
        </mxCell>
        <mxCell id="bhEWnd2NRkioedVnW9Wu-8" value="1" style="text;html=1;strokeColor=none;fillColor=none;align=center;verticalAlign=middle;whiteSpace=wrap;rounded=0;fontSize=8;" parent="WIyWlLk6GJQsqaUBKTNV-1" vertex="1">
          <mxGeometry x="-414" y="-799" width="10" height="10" as="geometry" />
        </mxCell>
        <mxCell id="bhEWnd2NRkioedVnW9Wu-9" value="1" style="text;html=1;strokeColor=none;fillColor=none;align=center;verticalAlign=middle;whiteSpace=wrap;rounded=0;fontSize=8;" parent="WIyWlLk6GJQsqaUBKTNV-1" vertex="1">
          <mxGeometry x="-186" y="-822" width="10" height="10" as="geometry" />
        </mxCell>
        <mxCell id="bhEWnd2NRkioedVnW9Wu-10" value="1" style="text;html=1;strokeColor=none;fillColor=none;align=center;verticalAlign=middle;whiteSpace=wrap;rounded=0;fontSize=8;" parent="WIyWlLk6GJQsqaUBKTNV-1" vertex="1">
          <mxGeometry x="-186" y="-799" width="10" height="10" as="geometry" />
        </mxCell>
        <mxCell id="bhEWnd2NRkioedVnW9Wu-11" value="1" style="text;html=1;strokeColor=none;fillColor=none;align=center;verticalAlign=middle;whiteSpace=wrap;rounded=0;fontSize=8;" parent="WIyWlLk6GJQsqaUBKTNV-1" vertex="1">
          <mxGeometry x="-413" y="-572" width="10" height="10" as="geometry" />
        </mxCell>
        <mxCell id="bhEWnd2NRkioedVnW9Wu-12" value="1" style="text;html=1;strokeColor=none;fillColor=none;align=center;verticalAlign=middle;whiteSpace=wrap;rounded=0;fontSize=8;" parent="WIyWlLk6GJQsqaUBKTNV-1" vertex="1">
          <mxGeometry x="-611" y="-700" width="10" height="10" as="geometry" />
        </mxCell>
        <mxCell id="bhEWnd2NRkioedVnW9Wu-13" value="1" style="text;html=1;strokeColor=none;fillColor=none;align=center;verticalAlign=middle;whiteSpace=wrap;rounded=0;fontSize=8;" parent="WIyWlLk6GJQsqaUBKTNV-1" vertex="1">
          <mxGeometry x="-409" y="-640" width="10" height="10" as="geometry" />
        </mxCell>
        <mxCell id="bhEWnd2NRkioedVnW9Wu-14" value="1" style="text;html=1;strokeColor=none;fillColor=none;align=center;verticalAlign=middle;whiteSpace=wrap;rounded=0;fontSize=8;" parent="WIyWlLk6GJQsqaUBKTNV-1" vertex="1">
          <mxGeometry x="-224" y="-640" width="10" height="10" as="geometry" />
        </mxCell>
        <mxCell id="bhEWnd2NRkioedVnW9Wu-27" value="connection to&lt;br&gt;Transport&lt;br&gt;Module" style="edgeStyle=orthogonalEdgeStyle;rounded=0;orthogonalLoop=1;jettySize=auto;html=1;entryX=0.089;entryY=0.998;entryDx=0;entryDy=0;entryPerimeter=0;" parent="WIyWlLk6GJQsqaUBKTNV-1" source="bhEWnd2NRkioedVnW9Wu-15" target="3nhxtxOCKIJYej11kyEG-10" edge="1">
          <mxGeometry relative="1" as="geometry">
            <mxPoint x="-820" y="123" as="targetPoint" />
            <Array as="points">
              <mxPoint x="-780" y="123" />
              <mxPoint x="-780" y="122" />
            </Array>
          </mxGeometry>
        </mxCell>
        <mxCell id="bhEWnd2NRkioedVnW9Wu-15" value="ServiceFactory" style="swimlane;fontStyle=1;align=center;verticalAlign=top;childLayout=stackLayout;horizontal=1;startSize=20;horizontalStack=0;resizeParent=1;resizeParentMax=0;resizeLast=0;collapsible=1;marginBottom=0;fontSize=9;" parent="WIyWlLk6GJQsqaUBKTNV-1" vertex="1">
          <mxGeometry x="-731" y="110" width="100" height="28" as="geometry" />
        </mxCell>
        <mxCell id="bhEWnd2NRkioedVnW9Wu-17" value="" style="line;strokeWidth=1;fillColor=none;align=left;verticalAlign=middle;spacingTop=-1;spacingLeft=3;spacingRight=3;rotatable=0;labelPosition=right;points=[];portConstraint=eastwest;fontSize=9;" parent="bhEWnd2NRkioedVnW9Wu-15" vertex="1">
          <mxGeometry y="20" width="100" height="8" as="geometry" />
        </mxCell>
        <mxCell id="bhEWnd2NRkioedVnW9Wu-24" value="uses" style="edgeStyle=orthogonalEdgeStyle;rounded=0;orthogonalLoop=1;jettySize=auto;html=1;exitX=0.001;exitY=-0.045;exitDx=0;exitDy=0;exitPerimeter=0;entryX=0.25;entryY=0;entryDx=0;entryDy=0;" parent="WIyWlLk6GJQsqaUBKTNV-1" source="yrnM3i_oS5V_zNQIPLy5-46" target="bhEWnd2NRkioedVnW9Wu-15" edge="1">
          <mxGeometry relative="1" as="geometry">
            <mxPoint x="-670" y="110" as="targetPoint" />
            <Array as="points">
              <mxPoint x="-662" y="-520" />
              <mxPoint x="-706" y="-520" />
            </Array>
          </mxGeometry>
        </mxCell>
        <mxCell id="bhEWnd2NRkioedVnW9Wu-93" value="returns as json" style="edgeStyle=orthogonalEdgeStyle;rounded=0;orthogonalLoop=1;jettySize=auto;html=1;endArrow=none;endFill=0;startArrow=classic;startFill=1;" parent="WIyWlLk6GJQsqaUBKTNV-1" edge="1">
          <mxGeometry relative="1" as="geometry">
            <mxPoint x="-331" y="990" as="sourcePoint" />
            <mxPoint x="-590" y="888" as="targetPoint" />
            <Array as="points">
              <mxPoint x="-331" y="990" />
              <mxPoint x="-590" y="990" />
              <mxPoint x="-590" y="888" />
            </Array>
          </mxGeometry>
        </mxCell>
        <mxCell id="bhEWnd2NRkioedVnW9Wu-104" value="&lt;b style=&quot;font-size: 9px;&quot;&gt;Data Access Layer&lt;/b&gt;" style="verticalAlign=top;align=center;spacingTop=8;spacingLeft=2;spacingRight=12;shape=cube;size=10;direction=south;fontStyle=4;html=1;fontSize=9;" parent="WIyWlLk6GJQsqaUBKTNV-1" vertex="1">
          <mxGeometry x="-493" y="2370" width="160" height="40" as="geometry" />
        </mxCell>
        <mxCell id="bhEWnd2NRkioedVnW9Wu-107" value="0..*" style="text;html=1;strokeColor=none;fillColor=none;align=center;verticalAlign=middle;whiteSpace=wrap;rounded=0;fontSize=8;" parent="WIyWlLk6GJQsqaUBKTNV-1" vertex="1">
          <mxGeometry x="-583" y="1570" width="10" height="10" as="geometry" />
        </mxCell>
        <mxCell id="bhEWnd2NRkioedVnW9Wu-108" value="0..*" style="text;html=1;strokeColor=none;fillColor=none;align=center;verticalAlign=middle;whiteSpace=wrap;rounded=0;fontSize=8;" parent="WIyWlLk6GJQsqaUBKTNV-1" vertex="1">
          <mxGeometry x="-209" y="1604" width="10" height="10" as="geometry" />
        </mxCell>
        <mxCell id="bhEWnd2NRkioedVnW9Wu-109" value="0..*" style="text;html=1;strokeColor=none;fillColor=none;align=center;verticalAlign=middle;whiteSpace=wrap;rounded=0;fontSize=8;" parent="WIyWlLk6GJQsqaUBKTNV-1" vertex="1">
          <mxGeometry x="-791" y="1621" width="10" height="10" as="geometry" />
        </mxCell>
        <mxCell id="bhEWnd2NRkioedVnW9Wu-110" value="1..*" style="text;html=1;strokeColor=none;fillColor=none;align=center;verticalAlign=middle;whiteSpace=wrap;rounded=0;fontSize=8;" parent="WIyWlLk6GJQsqaUBKTNV-1" vertex="1">
          <mxGeometry x="-373" y="1838" width="10" height="10" as="geometry" />
        </mxCell>
        <mxCell id="bhEWnd2NRkioedVnW9Wu-112" value="0..*" style="text;html=1;strokeColor=none;fillColor=none;align=center;verticalAlign=middle;whiteSpace=wrap;rounded=0;fontSize=8;" parent="WIyWlLk6GJQsqaUBKTNV-1" vertex="1">
          <mxGeometry x="-373.5" y="2024" width="10" height="10" as="geometry" />
        </mxCell>
        <mxCell id="bhEWnd2NRkioedVnW9Wu-114" value="0..*" style="text;html=1;strokeColor=none;fillColor=none;align=center;verticalAlign=middle;whiteSpace=wrap;rounded=0;fontSize=8;" parent="WIyWlLk6GJQsqaUBKTNV-1" vertex="1">
          <mxGeometry x="-241" y="1640" width="10" height="10" as="geometry" />
        </mxCell>
        <mxCell id="bhEWnd2NRkioedVnW9Wu-122" value="uses" style="endArrow=classic;html=1;rounded=0;entryX=0.121;entryY=0;entryDx=0;entryDy=0;entryPerimeter=0;edgeStyle=orthogonalEdgeStyle;fontSize=8;" parent="WIyWlLk6GJQsqaUBKTNV-1" target="3nhxtxOCKIJYej11kyEG-23" edge="1">
          <mxGeometry width="50" height="50" relative="1" as="geometry">
            <mxPoint x="-380" y="250" as="sourcePoint" />
            <mxPoint x="-320" y="830" as="targetPoint" />
            <Array as="points">
              <mxPoint x="-380" y="240" />
              <mxPoint x="-320" y="240" />
            </Array>
          </mxGeometry>
        </mxCell>
        <mxCell id="bhEWnd2NRkioedVnW9Wu-127" value="Design Updates" style="verticalAlign=top;align=left;spacingTop=8;spacingLeft=2;spacingRight=12;shape=cube;size=10;direction=south;fontStyle=5;html=1;fontSize=17;" parent="WIyWlLk6GJQsqaUBKTNV-1" vertex="1">
          <mxGeometry x="-815" y="2680" width="790" height="210" as="geometry" />
        </mxCell>
        <mxCell id="bhEWnd2NRkioedVnW9Wu-128" value="1) Added &quot;ServiceFactory&quot; class – We used the factory pattern, to make sure that the services and controllers are initialized correctly.&#xa;" style="text;strokeColor=none;fillColor=none;align=left;verticalAlign=top;spacingLeft=4;spacingRight=4;overflow=hidden;rotatable=0;points=[[0,0.5],[1,0.5]];portConstraint=eastwest;" parent="WIyWlLk6GJQsqaUBKTNV-1" vertex="1">
          <mxGeometry x="-800" y="2732" width="739" height="38" as="geometry" />
        </mxCell>
        <mxCell id="bhEWnd2NRkioedVnW9Wu-134" value="3) Updated the services return values to be a json String of the Response&lt;T&gt; object, instead of a Response&lt;T&gt; return type.&#xa;" style="text;strokeColor=none;fillColor=none;align=left;verticalAlign=top;spacingLeft=4;spacingRight=4;overflow=hidden;rotatable=0;points=[[0,0.5],[1,0.5]];portConstraint=eastwest;" parent="WIyWlLk6GJQsqaUBKTNV-1" vertex="1">
          <mxGeometry x="-800" y="2788" width="739" height="38" as="geometry" />
        </mxCell>
        <mxCell id="bhEWnd2NRkioedVnW9Wu-139" value="4) Added the needed integration with the Transports Module, through the service and business calls, and the unified Data Access Layer, &#xa;    shown on its dedicated class diagram." style="text;strokeColor=none;fillColor=none;align=left;verticalAlign=top;spacingLeft=4;spacingRight=4;overflow=hidden;rotatable=0;points=[[0,0.5],[1,0.5]];portConstraint=eastwest;" parent="WIyWlLk6GJQsqaUBKTNV-1" vertex="1">
          <mxGeometry x="-800" y="2820" width="739" height="38" as="geometry" />
        </mxCell>
        <mxCell id="bhEWnd2NRkioedVnW9Wu-140" value="5) Fixed the aggregation relationship between some of the classes, it is shown as a &quot;using&quot; association relationship." style="text;strokeColor=none;fillColor=none;align=left;verticalAlign=top;spacingLeft=4;spacingRight=4;overflow=hidden;rotatable=0;points=[[0,0.5],[1,0.5]];portConstraint=eastwest;" parent="WIyWlLk6GJQsqaUBKTNV-1" vertex="1">
          <mxGeometry x="-800" y="2858" width="739" height="38" as="geometry" />
        </mxCell>
        <mxCell id="bhEWnd2NRkioedVnW9Wu-141" value="2) Updated some of the classes to not be used as a Singleton, to match with the factory pattern written above.&#xa;" style="text;strokeColor=none;fillColor=none;align=left;verticalAlign=top;spacingLeft=4;spacingRight=4;overflow=hidden;rotatable=0;points=[[0,0.5],[1,0.5]];portConstraint=eastwest;" parent="WIyWlLk6GJQsqaUBKTNV-1" vertex="1">
          <mxGeometry x="-800" y="2760" width="739" height="38" as="geometry" />
        </mxCell>
        <mxCell id="bhEWnd2NRkioedVnW9Wu-168" value="redirects to" style="edgeStyle=orthogonalEdgeStyle;rounded=0;orthogonalLoop=1;jettySize=auto;html=1;fontSize=8;endArrow=classic;endFill=1;startArrow=none;startFill=0;entryX=0;entryY=0.5;entryDx=0;entryDy=0;" parent="WIyWlLk6GJQsqaUBKTNV-1" target="yrnM3i_oS5V_zNQIPLy5-33" edge="1">
          <mxGeometry x="0.5401" relative="1" as="geometry">
            <mxPoint x="-532" y="-841" as="sourcePoint" />
            <mxPoint x="-280" y="-840" as="targetPoint" />
            <Array as="points">
              <mxPoint x="-510" y="-841" />
              <mxPoint x="-510" y="-824" />
              <mxPoint x="-330" y="-824" />
              <mxPoint x="-330" y="-841" />
            </Array>
            <mxPoint as="offset" />
          </mxGeometry>
        </mxCell>
        <mxCell id="bhEWnd2NRkioedVnW9Wu-166" value="redirects to" style="edgeStyle=orthogonalEdgeStyle;rounded=0;orthogonalLoop=1;jettySize=auto;html=1;entryX=0;entryY=0.5;entryDx=0;entryDy=0;fontSize=8;startArrow=classic;startFill=1;" parent="WIyWlLk6GJQsqaUBKTNV-1" source="yrnM3i_oS5V_zNQIPLy5-25" target="yrnM3i_oS5V_zNQIPLy5-29" edge="1">
          <mxGeometry relative="1" as="geometry" />
        </mxCell>
      </root>
    </mxGraphModel>
  </diagram>
</mxfile>
